<svg width="1200" height="932" viewBox="0 0 1200 932" fill="none" xmlns="http://www.w3.org/2000/svg">
<rect width="1200" height="932" fill="white"/>
<path fill-rule="evenodd" clip-rule="evenodd" d="M62.6667 48L59.9444 45.3333H48V48H61.3333H62.6667ZM61.3333 42.9609V18.6667V16H64V18.6667V45.3333V45.5732L61.3333 42.9609ZM64 47.9861L63.9864 48H64V47.9861ZM36.5329 18.6667L33.8107 16H34.6667H48V18.6667H36.5329ZM32 17.9592L34.6667 20.5714V45.3333V48H32V45.3333V18.6667V17.9592Z" fill="#91D7E3"/>
<path fill-rule="evenodd" clip-rule="evenodd" d="M54.9118 36.0309C55.6036 34.8473 56 33.4699 56 32C56 27.5817 52.4183 24 48 24C46.4711 24 45.0423 24.4289 43.8275 25.1729L45.8245 27.1291C46.4888 26.8319 47.2251 26.6667 48 26.6667C50.9455 26.6667 53.3333 29.0545 53.3333 32C53.3333 32.7359 53.1843 33.437 52.9148 34.0747L54.9118 36.0309ZM43.7272 28.8076C43.0612 29.6977 42.6667 30.8028 42.6667 32C42.6667 34.9455 45.0545 37.3333 48 37.3333C49.2367 37.3333 50.3751 36.9124 51.2797 36.206L53.196 38.0831C51.7981 39.2783 49.9833 40 48 40C43.5817 40 40 36.4183 40 32C40 30.076 40.6792 28.3105 41.811 26.9305L43.7272 28.8076Z" fill="#ED8796"/>
<path fill-rule="evenodd" clip-rule="evenodd" d="M64 45.5211V45.3333V18.6667V16H61.3333V18.6667V42.9089L64 45.5211ZM59.9976 45.3333H48V48H61.3333H62.7198L59.9976 45.3333Z" fill="#EED49F"/>
<path d="M475.545 295H472.727C472.561 294.189 472.269 293.477 471.852 292.864C471.443 292.25 470.943 291.735 470.352 291.318C469.769 290.894 469.121 290.576 468.409 290.364C467.697 290.152 466.955 290.045 466.182 290.045C464.773 290.045 463.496 290.402 462.352 291.114C461.216 291.826 460.311 292.875 459.636 294.261C458.97 295.648 458.636 297.348 458.636 299.364C458.636 301.379 458.97 303.08 459.636 304.466C460.311 305.852 461.216 306.902 462.352 307.614C463.496 308.326 464.773 308.682 466.182 308.682C466.955 308.682 467.697 308.576 468.409 308.364C469.121 308.152 469.769 307.837 470.352 307.42C470.943 306.996 471.443 306.477 471.852 305.864C472.269 305.242 472.561 304.53 472.727 303.727H475.545C475.333 304.917 474.947 305.981 474.386 306.92C473.826 307.86 473.129 308.659 472.295 309.318C471.462 309.97 470.527 310.466 469.489 310.807C468.458 311.148 467.356 311.318 466.182 311.318C464.197 311.318 462.432 310.833 460.886 309.864C459.341 308.894 458.125 307.515 457.239 305.727C456.352 303.939 455.909 301.818 455.909 299.364C455.909 296.909 456.352 294.788 457.239 293C458.125 291.212 459.341 289.833 460.886 288.864C462.432 287.894 464.197 287.409 466.182 287.409C467.356 287.409 468.458 287.58 469.489 287.92C470.527 288.261 471.462 288.761 472.295 289.42C473.129 290.072 473.826 290.867 474.386 291.807C474.947 292.739 475.333 293.803 475.545 295ZM484.872 311.409C483.766 311.409 482.762 311.201 481.861 310.784C480.959 310.36 480.243 309.75 479.713 308.955C479.183 308.152 478.918 307.182 478.918 306.045C478.918 305.045 479.115 304.235 479.509 303.614C479.902 302.985 480.429 302.492 481.088 302.136C481.747 301.78 482.474 301.515 483.27 301.341C484.073 301.159 484.88 301.015 485.69 300.909C486.751 300.773 487.611 300.67 488.27 300.602C488.937 300.527 489.421 300.402 489.724 300.227C490.035 300.053 490.19 299.75 490.19 299.318V299.227C490.19 298.106 489.884 297.235 489.27 296.614C488.664 295.992 487.743 295.682 486.509 295.682C485.228 295.682 484.224 295.962 483.497 296.523C482.77 297.083 482.259 297.682 481.963 298.318L479.418 297.409C479.872 296.348 480.478 295.523 481.236 294.932C482.001 294.333 482.834 293.917 483.736 293.682C484.645 293.439 485.539 293.318 486.418 293.318C486.978 293.318 487.622 293.386 488.349 293.523C489.084 293.652 489.793 293.92 490.474 294.33C491.164 294.739 491.736 295.356 492.19 296.182C492.645 297.008 492.872 298.114 492.872 299.5V311H490.19V308.636H490.054C489.872 309.015 489.569 309.42 489.145 309.852C488.721 310.284 488.156 310.652 487.452 310.955C486.747 311.258 485.887 311.409 484.872 311.409ZM485.281 309C486.342 309 487.236 308.792 487.963 308.375C488.698 307.958 489.251 307.42 489.622 306.761C490.001 306.102 490.19 305.409 490.19 304.682V302.227C490.077 302.364 489.827 302.489 489.44 302.602C489.062 302.708 488.622 302.803 488.122 302.886C487.63 302.962 487.149 303.03 486.679 303.091C486.217 303.144 485.842 303.189 485.554 303.227C484.857 303.318 484.205 303.466 483.599 303.67C483.001 303.867 482.516 304.167 482.145 304.568C481.781 304.962 481.599 305.5 481.599 306.182C481.599 307.114 481.944 307.818 482.634 308.295C483.33 308.765 484.213 309 485.281 309ZM500.449 287.727V311H497.767V287.727H500.449ZM512.452 311.364C510.815 311.364 509.406 310.977 508.224 310.205C507.043 309.432 506.134 308.367 505.497 307.011C504.861 305.655 504.543 304.106 504.543 302.364C504.543 300.591 504.868 299.027 505.52 297.67C506.179 296.307 507.096 295.242 508.27 294.477C509.452 293.705 510.83 293.318 512.406 293.318C513.634 293.318 514.74 293.545 515.724 294C516.709 294.455 517.516 295.091 518.145 295.909C518.774 296.727 519.164 297.682 519.315 298.773H516.634C516.429 297.977 515.974 297.273 515.27 296.659C514.573 296.038 513.634 295.727 512.452 295.727C511.406 295.727 510.49 296 509.702 296.545C508.921 297.083 508.312 297.845 507.872 298.83C507.44 299.807 507.224 300.955 507.224 302.273C507.224 303.621 507.437 304.795 507.861 305.795C508.293 306.795 508.899 307.572 509.679 308.125C510.467 308.678 511.391 308.955 512.452 308.955C513.149 308.955 513.781 308.833 514.349 308.591C514.918 308.348 515.399 308 515.793 307.545C516.187 307.091 516.467 306.545 516.634 305.909H519.315C519.164 306.939 518.789 307.867 518.19 308.693C517.599 309.511 516.815 310.163 515.838 310.648C514.868 311.125 513.74 311.364 512.452 311.364ZM534.236 303.864V293.545H536.918V311H534.236V308.045H534.054C533.645 308.932 533.009 309.686 532.145 310.307C531.281 310.92 530.19 311.227 528.872 311.227C527.781 311.227 526.812 310.989 525.963 310.511C525.115 310.027 524.448 309.299 523.963 308.33C523.478 307.352 523.236 306.121 523.236 304.636V293.545H525.918V304.455C525.918 305.727 526.274 306.742 526.986 307.5C527.705 308.258 528.622 308.636 529.736 308.636C530.402 308.636 531.08 308.466 531.77 308.125C532.467 307.784 533.05 307.261 533.52 306.557C533.997 305.852 534.236 304.955 534.236 303.864ZM544.511 287.727V311H541.83V287.727H544.511ZM554.56 311.409C553.454 311.409 552.45 311.201 551.548 310.784C550.647 310.36 549.931 309.75 549.401 308.955C548.87 308.152 548.605 307.182 548.605 306.045C548.605 305.045 548.802 304.235 549.196 303.614C549.59 302.985 550.116 302.492 550.776 302.136C551.435 301.78 552.162 301.515 552.957 301.341C553.76 301.159 554.567 301.015 555.378 300.909C556.438 300.773 557.298 300.67 557.957 300.602C558.624 300.527 559.109 300.402 559.412 300.227C559.723 300.053 559.878 299.75 559.878 299.318V299.227C559.878 298.106 559.571 297.235 558.957 296.614C558.351 295.992 557.431 295.682 556.196 295.682C554.916 295.682 553.912 295.962 553.185 296.523C552.457 297.083 551.946 297.682 551.651 298.318L549.105 297.409C549.56 296.348 550.166 295.523 550.923 294.932C551.688 294.333 552.522 293.917 553.423 293.682C554.332 293.439 555.226 293.318 556.105 293.318C556.666 293.318 557.31 293.386 558.037 293.523C558.772 293.652 559.48 293.92 560.162 294.33C560.851 294.739 561.423 295.356 561.878 296.182C562.332 297.008 562.56 298.114 562.56 299.5V311H559.878V308.636H559.741C559.56 309.015 559.257 309.42 558.832 309.852C558.408 310.284 557.844 310.652 557.139 310.955C556.435 311.258 555.575 311.409 554.56 311.409ZM554.969 309C556.029 309 556.923 308.792 557.651 308.375C558.385 307.958 558.938 307.42 559.31 306.761C559.688 306.102 559.878 305.409 559.878 304.682V302.227C559.764 302.364 559.514 302.489 559.128 302.602C558.749 302.708 558.31 302.803 557.81 302.886C557.317 302.962 556.836 303.03 556.366 303.091C555.904 303.144 555.529 303.189 555.241 303.227C554.545 303.318 553.893 303.466 553.287 303.67C552.688 303.867 552.204 304.167 551.832 304.568C551.469 304.962 551.287 305.5 551.287 306.182C551.287 307.114 551.632 307.818 552.321 308.295C553.018 308.765 553.901 309 554.969 309ZM574.045 311.364C572.591 311.364 571.307 310.996 570.193 310.261C569.08 309.519 568.208 308.473 567.58 307.125C566.951 305.769 566.636 304.167 566.636 302.318C566.636 300.485 566.951 298.894 567.58 297.545C568.208 296.197 569.083 295.155 570.205 294.42C571.326 293.686 572.621 293.318 574.091 293.318C575.227 293.318 576.125 293.508 576.784 293.886C577.451 294.258 577.958 294.682 578.307 295.159C578.663 295.629 578.939 296.015 579.136 296.318H579.364V287.727H582.045V311H579.455V308.318H579.136C578.939 308.636 578.659 309.038 578.295 309.523C577.932 310 577.413 310.428 576.739 310.807C576.064 311.178 575.167 311.364 574.045 311.364ZM574.409 308.955C575.485 308.955 576.394 308.674 577.136 308.114C577.879 307.545 578.443 306.761 578.83 305.761C579.216 304.754 579.409 303.591 579.409 302.273C579.409 300.97 579.22 299.83 578.841 298.852C578.462 297.867 577.902 297.102 577.159 296.557C576.417 296.004 575.5 295.727 574.409 295.727C573.273 295.727 572.326 296.019 571.568 296.602C570.818 297.178 570.254 297.962 569.875 298.955C569.504 299.939 569.318 301.045 569.318 302.273C569.318 303.515 569.508 304.644 569.886 305.659C570.273 306.667 570.841 307.47 571.591 308.068C572.348 308.659 573.288 308.955 574.409 308.955ZM594.42 311.364C592.845 311.364 591.462 310.989 590.273 310.239C589.091 309.489 588.167 308.439 587.5 307.091C586.841 305.742 586.511 304.167 586.511 302.364C586.511 300.545 586.841 298.958 587.5 297.602C588.167 296.246 589.091 295.193 590.273 294.443C591.462 293.693 592.845 293.318 594.42 293.318C595.996 293.318 597.375 293.693 598.557 294.443C599.746 295.193 600.67 296.246 601.33 297.602C601.996 298.958 602.33 300.545 602.33 302.364C602.33 304.167 601.996 305.742 601.33 307.091C600.67 308.439 599.746 309.489 598.557 310.239C597.375 310.989 595.996 311.364 594.42 311.364ZM594.42 308.955C595.617 308.955 596.602 308.648 597.375 308.034C598.148 307.42 598.72 306.614 599.091 305.614C599.462 304.614 599.648 303.53 599.648 302.364C599.648 301.197 599.462 300.11 599.091 299.102C598.72 298.095 598.148 297.28 597.375 296.659C596.602 296.038 595.617 295.727 594.42 295.727C593.223 295.727 592.239 296.038 591.466 296.659C590.693 297.28 590.121 298.095 589.75 299.102C589.379 300.11 589.193 301.197 589.193 302.364C589.193 303.53 589.379 304.614 589.75 305.614C590.121 306.614 590.693 307.42 591.466 308.034C592.239 308.648 593.223 308.955 594.42 308.955ZM606.423 311V293.545H609.014V296.182H609.196C609.514 295.318 610.09 294.617 610.923 294.08C611.757 293.542 612.696 293.273 613.741 293.273C613.938 293.273 614.185 293.277 614.48 293.284C614.776 293.292 614.999 293.303 615.151 293.318V296.045C615.06 296.023 614.851 295.989 614.526 295.943C614.207 295.89 613.87 295.864 613.514 295.864C612.666 295.864 611.908 296.042 611.241 296.398C610.582 296.746 610.06 297.231 609.673 297.852C609.295 298.466 609.105 299.167 609.105 299.955V311H606.423ZM623.466 311.409C622.36 311.409 621.356 311.201 620.455 310.784C619.553 310.36 618.837 309.75 618.307 308.955C617.777 308.152 617.511 307.182 617.511 306.045C617.511 305.045 617.708 304.235 618.102 303.614C618.496 302.985 619.023 302.492 619.682 302.136C620.341 301.78 621.068 301.515 621.864 301.341C622.667 301.159 623.473 301.015 624.284 300.909C625.345 300.773 626.205 300.67 626.864 300.602C627.53 300.527 628.015 300.402 628.318 300.227C628.629 300.053 628.784 299.75 628.784 299.318V299.227C628.784 298.106 628.477 297.235 627.864 296.614C627.258 295.992 626.337 295.682 625.102 295.682C623.822 295.682 622.818 295.962 622.091 296.523C621.364 297.083 620.852 297.682 620.557 298.318L618.011 297.409C618.466 296.348 619.072 295.523 619.83 294.932C620.595 294.333 621.428 293.917 622.33 293.682C623.239 293.439 624.133 293.318 625.011 293.318C625.572 293.318 626.216 293.386 626.943 293.523C627.678 293.652 628.386 293.92 629.068 294.33C629.758 294.739 630.33 295.356 630.784 296.182C631.239 297.008 631.466 298.114 631.466 299.5V311H628.784V308.636H628.648C628.466 309.015 628.163 309.42 627.739 309.852C627.314 310.284 626.75 310.652 626.045 310.955C625.341 311.258 624.481 311.409 623.466 311.409ZM623.875 309C624.936 309 625.83 308.792 626.557 308.375C627.292 307.958 627.845 307.42 628.216 306.761C628.595 306.102 628.784 305.409 628.784 304.682V302.227C628.67 302.364 628.42 302.489 628.034 302.602C627.655 302.708 627.216 302.803 626.716 302.886C626.223 302.962 625.742 303.03 625.273 303.091C624.811 303.144 624.436 303.189 624.148 303.227C623.451 303.318 622.799 303.466 622.193 303.67C621.595 303.867 621.11 304.167 620.739 304.568C620.375 304.962 620.193 305.5 620.193 306.182C620.193 307.114 620.538 307.818 621.227 308.295C621.924 308.765 622.807 309 623.875 309ZM645.724 311V287.727H653.861C655.482 287.727 656.819 288.008 657.872 288.568C658.925 289.121 659.709 289.867 660.224 290.807C660.74 291.739 660.997 292.773 660.997 293.909C660.997 294.909 660.819 295.735 660.463 296.386C660.115 297.038 659.652 297.553 659.077 297.932C658.509 298.311 657.891 298.591 657.224 298.773V299C657.937 299.045 658.652 299.295 659.372 299.75C660.092 300.205 660.694 300.856 661.179 301.705C661.664 302.553 661.906 303.591 661.906 304.818C661.906 305.985 661.641 307.034 661.111 307.966C660.58 308.898 659.743 309.636 658.599 310.182C657.455 310.727 655.967 311 654.134 311H645.724ZM648.543 308.5H654.134C655.974 308.5 657.281 308.144 658.054 307.432C658.834 306.712 659.224 305.841 659.224 304.818C659.224 304.03 659.024 303.303 658.622 302.636C658.221 301.962 657.649 301.424 656.906 301.023C656.164 300.614 655.285 300.409 654.27 300.409H648.543V308.5ZM648.543 297.955H653.77C654.618 297.955 655.384 297.788 656.065 297.455C656.755 297.121 657.3 296.652 657.702 296.045C658.111 295.439 658.315 294.727 658.315 293.909C658.315 292.886 657.959 292.019 657.247 291.307C656.535 290.587 655.406 290.227 653.861 290.227H648.543V297.955ZM666.173 311V293.545H668.855V311H666.173ZM667.537 290.636C667.014 290.636 666.563 290.458 666.185 290.102C665.813 289.746 665.628 289.318 665.628 288.818C665.628 288.318 665.813 287.89 666.185 287.534C666.563 287.178 667.014 287 667.537 287C668.06 287 668.507 287.178 668.878 287.534C669.257 287.89 669.446 288.318 669.446 288.818C669.446 289.318 669.257 289.746 668.878 290.102C668.507 290.458 668.06 290.636 667.537 290.636ZM676.449 300.5V311H673.767V293.545H676.358V296.273H676.585C676.994 295.386 677.616 294.674 678.449 294.136C679.282 293.591 680.358 293.318 681.676 293.318C682.858 293.318 683.892 293.561 684.778 294.045C685.665 294.523 686.354 295.25 686.847 296.227C687.339 297.197 687.585 298.424 687.585 299.909V311H684.903V300.091C684.903 298.72 684.547 297.652 683.835 296.886C683.123 296.114 682.146 295.727 680.903 295.727C680.047 295.727 679.282 295.913 678.608 296.284C677.941 296.655 677.415 297.197 677.028 297.909C676.642 298.621 676.449 299.485 676.449 300.5ZM697.622 311.409C696.516 311.409 695.512 311.201 694.611 310.784C693.709 310.36 692.993 309.75 692.463 308.955C691.933 308.152 691.668 307.182 691.668 306.045C691.668 305.045 691.865 304.235 692.259 303.614C692.652 302.985 693.179 302.492 693.838 302.136C694.497 301.78 695.224 301.515 696.02 301.341C696.823 301.159 697.63 301.015 698.44 300.909C699.501 300.773 700.361 300.67 701.02 300.602C701.687 300.527 702.171 300.402 702.474 300.227C702.785 300.053 702.94 299.75 702.94 299.318V299.227C702.94 298.106 702.634 297.235 702.02 296.614C701.414 295.992 700.493 295.682 699.259 295.682C697.978 295.682 696.974 295.962 696.247 296.523C695.52 297.083 695.009 297.682 694.713 298.318L692.168 297.409C692.622 296.348 693.228 295.523 693.986 294.932C694.751 294.333 695.584 293.917 696.486 293.682C697.395 293.439 698.289 293.318 699.168 293.318C699.728 293.318 700.372 293.386 701.099 293.523C701.834 293.652 702.543 293.92 703.224 294.33C703.914 294.739 704.486 295.356 704.94 296.182C705.395 297.008 705.622 298.114 705.622 299.5V311H702.94V308.636H702.804C702.622 309.015 702.319 309.42 701.895 309.852C701.471 310.284 700.906 310.652 700.202 310.955C699.497 311.258 698.637 311.409 697.622 311.409ZM698.031 309C699.092 309 699.986 308.792 700.713 308.375C701.448 307.958 702.001 307.42 702.372 306.761C702.751 306.102 702.94 305.409 702.94 304.682V302.227C702.827 302.364 702.577 302.489 702.19 302.602C701.812 302.708 701.372 302.803 700.872 302.886C700.38 302.962 699.899 303.03 699.429 303.091C698.967 303.144 698.592 303.189 698.304 303.227C697.607 303.318 696.955 303.466 696.349 303.67C695.751 303.867 695.266 304.167 694.895 304.568C694.531 304.962 694.349 305.5 694.349 306.182C694.349 307.114 694.694 307.818 695.384 308.295C696.08 308.765 696.963 309 698.031 309ZM698.122 291.182L700.895 285.909H704.031L700.486 291.182H698.122ZM710.517 311V293.545H713.108V296.182H713.29C713.608 295.318 714.184 294.617 715.017 294.08C715.85 293.542 716.79 293.273 717.835 293.273C718.032 293.273 718.278 293.277 718.574 293.284C718.869 293.292 719.093 293.303 719.244 293.318V296.045C719.153 296.023 718.945 295.989 718.619 295.943C718.301 295.89 717.964 295.864 717.608 295.864C716.759 295.864 716.002 296.042 715.335 296.398C714.676 296.746 714.153 297.231 713.767 297.852C713.388 298.466 713.199 299.167 713.199 299.955V311H710.517ZM722.423 311V293.545H725.105V311H722.423ZM723.787 290.636C723.264 290.636 722.813 290.458 722.435 290.102C722.063 289.746 721.878 289.318 721.878 288.818C721.878 288.318 722.063 287.89 722.435 287.534C722.813 287.178 723.264 287 723.787 287C724.31 287 724.757 287.178 725.128 287.534C725.507 287.89 725.696 288.318 725.696 288.818C725.696 289.318 725.507 289.746 725.128 290.102C724.757 290.458 724.31 290.636 723.787 290.636ZM735.153 311.409C734.047 311.409 733.044 311.201 732.142 310.784C731.241 310.36 730.525 309.75 729.994 308.955C729.464 308.152 729.199 307.182 729.199 306.045C729.199 305.045 729.396 304.235 729.79 303.614C730.184 302.985 730.71 302.492 731.369 302.136C732.028 301.78 732.756 301.515 733.551 301.341C734.354 301.159 735.161 301.015 735.972 300.909C737.032 300.773 737.892 300.67 738.551 300.602C739.218 300.527 739.703 300.402 740.006 300.227C740.316 300.053 740.472 299.75 740.472 299.318V299.227C740.472 298.106 740.165 297.235 739.551 296.614C738.945 295.992 738.025 295.682 736.79 295.682C735.509 295.682 734.506 295.962 733.778 296.523C733.051 297.083 732.54 297.682 732.244 298.318L729.699 297.409C730.153 296.348 730.759 295.523 731.517 294.932C732.282 294.333 733.116 293.917 734.017 293.682C734.926 293.439 735.82 293.318 736.699 293.318C737.259 293.318 737.903 293.386 738.631 293.523C739.366 293.652 740.074 293.92 740.756 294.33C741.445 294.739 742.017 295.356 742.472 296.182C742.926 297.008 743.153 298.114 743.153 299.5V311H740.472V308.636H740.335C740.153 309.015 739.85 309.42 739.426 309.852C739.002 310.284 738.438 310.652 737.733 310.955C737.028 311.258 736.169 311.409 735.153 311.409ZM735.562 309C736.623 309 737.517 308.792 738.244 308.375C738.979 307.958 739.532 307.42 739.903 306.761C740.282 306.102 740.472 305.409 740.472 304.682V302.227C740.358 302.364 740.108 302.489 739.722 302.602C739.343 302.708 738.903 302.803 738.403 302.886C737.911 302.962 737.43 303.03 736.96 303.091C736.498 303.144 736.123 303.189 735.835 303.227C735.138 303.318 734.487 303.466 733.881 303.67C733.282 303.867 732.797 304.167 732.426 304.568C732.063 304.962 731.881 305.5 731.881 306.182C731.881 307.114 732.225 307.818 732.915 308.295C733.612 308.765 734.494 309 735.562 309Z" fill="#111111"/>
<path d="M442.773 353H441.364C441.28 352.595 441.134 352.239 440.926 351.932C440.722 351.625 440.472 351.367 440.176 351.159C439.884 350.947 439.561 350.788 439.205 350.682C438.848 350.576 438.477 350.523 438.091 350.523C437.386 350.523 436.748 350.701 436.176 351.057C435.608 351.413 435.155 351.938 434.818 352.631C434.485 353.324 434.318 354.174 434.318 355.182C434.318 356.189 434.485 357.04 434.818 357.733C435.155 358.426 435.608 358.951 436.176 359.307C436.748 359.663 437.386 359.841 438.091 359.841C438.477 359.841 438.848 359.788 439.205 359.682C439.561 359.576 439.884 359.419 440.176 359.21C440.472 358.998 440.722 358.739 440.926 358.432C441.134 358.121 441.28 357.765 441.364 357.364H442.773C442.667 357.958 442.473 358.491 442.193 358.96C441.913 359.43 441.564 359.83 441.148 360.159C440.731 360.485 440.263 360.733 439.744 360.903C439.229 361.074 438.678 361.159 438.091 361.159C437.098 361.159 436.216 360.917 435.443 360.432C434.67 359.947 434.063 359.258 433.619 358.364C433.176 357.47 432.955 356.409 432.955 355.182C432.955 353.955 433.176 352.894 433.619 352C434.063 351.106 434.67 350.417 435.443 349.932C436.216 349.447 437.098 349.205 438.091 349.205C438.678 349.205 439.229 349.29 439.744 349.46C440.263 349.631 440.731 349.881 441.148 350.21C441.564 350.536 441.913 350.934 442.193 351.403C442.473 351.869 442.667 352.402 442.773 353ZM448.413 361.182C447.625 361.182 446.934 360.994 446.339 360.619C445.749 360.244 445.286 359.72 444.953 359.045C444.624 358.371 444.459 357.583 444.459 356.682C444.459 355.773 444.624 354.979 444.953 354.301C445.286 353.623 445.749 353.097 446.339 352.722C446.934 352.347 447.625 352.159 448.413 352.159C449.201 352.159 449.891 352.347 450.482 352.722C451.076 353.097 451.538 353.623 451.868 354.301C452.201 354.979 452.368 355.773 452.368 356.682C452.368 357.583 452.201 358.371 451.868 359.045C451.538 359.72 451.076 360.244 450.482 360.619C449.891 360.994 449.201 361.182 448.413 361.182ZM448.413 359.977C449.012 359.977 449.504 359.824 449.891 359.517C450.277 359.21 450.563 358.807 450.749 358.307C450.934 357.807 451.027 357.265 451.027 356.682C451.027 356.098 450.934 355.555 450.749 355.051C450.563 354.547 450.277 354.14 449.891 353.83C449.504 353.519 449.012 353.364 448.413 353.364C447.815 353.364 447.322 353.519 446.936 353.83C446.55 354.14 446.264 354.547 446.078 355.051C445.893 355.555 445.8 356.098 445.8 356.682C445.8 357.265 445.893 357.807 446.078 358.307C446.264 358.807 446.55 359.21 446.936 359.517C447.322 359.824 447.815 359.977 448.413 359.977ZM455.756 355.75V361H454.415V352.273H455.71V353.636H455.824C456.028 353.193 456.339 352.837 456.756 352.568C457.172 352.295 457.71 352.159 458.369 352.159C458.96 352.159 459.477 352.28 459.92 352.523C460.364 352.761 460.708 353.125 460.955 353.614C461.201 354.098 461.324 354.712 461.324 355.455V361H459.983V355.545C459.983 354.86 459.805 354.326 459.449 353.943C459.093 353.557 458.604 353.364 457.983 353.364C457.555 353.364 457.172 353.456 456.835 353.642C456.502 353.828 456.239 354.098 456.045 354.455C455.852 354.811 455.756 355.242 455.756 355.75ZM470.598 352.273L467.371 361H466.007L462.78 352.273H464.234L466.643 359.227H466.734L469.143 352.273H470.598ZM475.714 361.182C474.874 361.182 474.148 360.996 473.538 360.625C472.932 360.25 472.464 359.727 472.135 359.057C471.809 358.383 471.646 357.598 471.646 356.705C471.646 355.811 471.809 355.023 472.135 354.341C472.464 353.655 472.923 353.121 473.51 352.739C474.101 352.352 474.79 352.159 475.578 352.159C476.033 352.159 476.482 352.235 476.925 352.386C477.368 352.538 477.771 352.784 478.135 353.125C478.499 353.462 478.788 353.909 479.004 354.466C479.22 355.023 479.328 355.708 479.328 356.523V357.091H472.601V355.932H477.964C477.964 355.439 477.866 355 477.669 354.614C477.476 354.227 477.199 353.922 476.839 353.699C476.483 353.475 476.063 353.364 475.578 353.364C475.044 353.364 474.582 353.496 474.192 353.761C473.805 354.023 473.508 354.364 473.3 354.784C473.091 355.205 472.987 355.655 472.987 356.136V356.909C472.987 357.568 473.101 358.127 473.328 358.585C473.559 359.04 473.879 359.386 474.288 359.625C474.697 359.86 475.173 359.977 475.714 359.977C476.067 359.977 476.385 359.928 476.669 359.83C476.957 359.727 477.205 359.576 477.413 359.375C477.622 359.17 477.783 358.917 477.896 358.614L479.192 358.977C479.055 359.417 478.826 359.803 478.504 360.136C478.182 360.466 477.785 360.723 477.311 360.909C476.838 361.091 476.305 361.182 475.714 361.182ZM481.368 361V352.273H482.663V353.591H482.754C482.913 353.159 483.201 352.809 483.618 352.54C484.035 352.271 484.504 352.136 485.027 352.136C485.125 352.136 485.249 352.138 485.396 352.142C485.544 352.146 485.656 352.152 485.732 352.159V353.523C485.686 353.511 485.582 353.494 485.419 353.472C485.26 353.445 485.091 353.432 484.913 353.432C484.489 353.432 484.11 353.521 483.777 353.699C483.447 353.873 483.186 354.116 482.993 354.426C482.804 354.733 482.709 355.083 482.709 355.477V361H481.368ZM493.503 354.227L492.298 354.568C492.223 354.367 492.111 354.172 491.963 353.983C491.819 353.79 491.622 353.631 491.372 353.506C491.122 353.381 490.802 353.318 490.412 353.318C489.878 353.318 489.433 353.441 489.077 353.688C488.724 353.93 488.548 354.239 488.548 354.614C488.548 354.947 488.67 355.21 488.912 355.403C489.154 355.597 489.533 355.758 490.048 355.886L491.344 356.205C492.124 356.394 492.705 356.684 493.088 357.074C493.471 357.46 493.662 357.958 493.662 358.568C493.662 359.068 493.518 359.515 493.23 359.909C492.946 360.303 492.548 360.614 492.037 360.841C491.526 361.068 490.931 361.182 490.253 361.182C489.363 361.182 488.626 360.989 488.043 360.602C487.459 360.216 487.09 359.652 486.935 358.909L488.207 358.591C488.329 359.061 488.558 359.413 488.895 359.648C489.236 359.883 489.681 360 490.23 360C490.855 360 491.351 359.867 491.719 359.602C492.09 359.333 492.276 359.011 492.276 358.636C492.276 358.333 492.17 358.08 491.957 357.875C491.745 357.667 491.42 357.511 490.98 357.409L489.526 357.068C488.726 356.879 488.139 356.585 487.764 356.188C487.393 355.786 487.207 355.284 487.207 354.682C487.207 354.189 487.346 353.754 487.622 353.375C487.902 352.996 488.283 352.699 488.764 352.483C489.249 352.267 489.798 352.159 490.412 352.159C491.276 352.159 491.954 352.348 492.446 352.727C492.942 353.106 493.295 353.606 493.503 354.227ZM499.226 361.182C498.438 361.182 497.747 360.994 497.152 360.619C496.561 360.244 496.099 359.72 495.766 359.045C495.436 358.371 495.271 357.583 495.271 356.682C495.271 355.773 495.436 354.979 495.766 354.301C496.099 353.623 496.561 353.097 497.152 352.722C497.747 352.347 498.438 352.159 499.226 352.159C500.014 352.159 500.703 352.347 501.294 352.722C501.889 353.097 502.351 353.623 502.68 354.301C503.014 354.979 503.18 355.773 503.18 356.682C503.18 357.583 503.014 358.371 502.68 359.045C502.351 359.72 501.889 360.244 501.294 360.619C500.703 360.994 500.014 361.182 499.226 361.182ZM499.226 359.977C499.824 359.977 500.317 359.824 500.703 359.517C501.089 359.21 501.375 358.807 501.561 358.307C501.747 357.807 501.839 357.265 501.839 356.682C501.839 356.098 501.747 355.555 501.561 355.051C501.375 354.547 501.089 354.14 500.703 353.83C500.317 353.519 499.824 353.364 499.226 353.364C498.627 353.364 498.135 353.519 497.749 353.83C497.362 354.14 497.076 354.547 496.891 355.051C496.705 355.555 496.612 356.098 496.612 356.682C496.612 357.265 496.705 357.807 496.891 358.307C497.076 358.807 497.362 359.21 497.749 359.517C498.135 359.824 498.627 359.977 499.226 359.977ZM505.227 361V352.273H506.523V353.591H506.614C506.773 353.159 507.061 352.809 507.477 352.54C507.894 352.271 508.364 352.136 508.886 352.136C508.985 352.136 509.108 352.138 509.256 352.142C509.403 352.146 509.515 352.152 509.591 352.159V353.523C509.545 353.511 509.441 353.494 509.278 353.472C509.119 353.445 508.951 353.432 508.773 353.432C508.348 353.432 507.97 353.521 507.636 353.699C507.307 353.873 507.045 354.116 506.852 354.426C506.663 354.733 506.568 355.083 506.568 355.477V361H505.227ZM518.976 361.182C518.249 361.182 517.607 360.998 517.05 360.631C516.493 360.259 516.057 359.737 515.743 359.062C515.429 358.384 515.271 357.583 515.271 356.659C515.271 355.742 515.429 354.947 515.743 354.273C516.057 353.598 516.495 353.078 517.055 352.71C517.616 352.343 518.264 352.159 518.999 352.159C519.567 352.159 520.016 352.254 520.345 352.443C520.679 352.629 520.932 352.841 521.107 353.08C521.285 353.314 521.423 353.508 521.521 353.659H521.635V349.364H522.976V361H521.68V359.659H521.521C521.423 359.818 521.283 360.019 521.101 360.261C520.919 360.5 520.66 360.714 520.322 360.903C519.985 361.089 519.536 361.182 518.976 361.182ZM519.158 359.977C519.696 359.977 520.15 359.837 520.521 359.557C520.893 359.273 521.175 358.881 521.368 358.381C521.561 357.877 521.658 357.295 521.658 356.636C521.658 355.985 521.563 355.415 521.374 354.926C521.184 354.434 520.904 354.051 520.533 353.778C520.161 353.502 519.703 353.364 519.158 353.364C518.589 353.364 518.116 353.509 517.737 353.801C517.362 354.089 517.08 354.481 516.891 354.977C516.705 355.47 516.612 356.023 516.612 356.636C516.612 357.258 516.707 357.822 516.896 358.33C517.089 358.833 517.374 359.235 517.749 359.534C518.127 359.83 518.597 359.977 519.158 359.977ZM529.277 361.182C528.436 361.182 527.711 360.996 527.101 360.625C526.495 360.25 526.027 359.727 525.697 359.057C525.372 358.383 525.209 357.598 525.209 356.705C525.209 355.811 525.372 355.023 525.697 354.341C526.027 353.655 526.485 353.121 527.072 352.739C527.663 352.352 528.353 352.159 529.141 352.159C529.595 352.159 530.044 352.235 530.487 352.386C530.93 352.538 531.334 352.784 531.697 353.125C532.061 353.462 532.351 353.909 532.567 354.466C532.783 355.023 532.891 355.708 532.891 356.523V357.091H526.163V355.932H531.527C531.527 355.439 531.429 355 531.232 354.614C531.038 354.227 530.762 353.922 530.402 353.699C530.046 353.475 529.625 353.364 529.141 353.364C528.607 353.364 528.144 353.496 527.754 353.761C527.368 354.023 527.071 354.364 526.862 354.784C526.654 355.205 526.55 355.655 526.55 356.136V356.909C526.55 357.568 526.663 358.127 526.891 358.585C527.122 359.04 527.442 359.386 527.851 359.625C528.26 359.86 528.735 359.977 529.277 359.977C529.629 359.977 529.947 359.928 530.232 359.83C530.519 359.727 530.768 359.576 530.976 359.375C531.184 359.17 531.345 358.917 531.459 358.614L532.754 358.977C532.618 359.417 532.389 359.803 532.067 360.136C531.745 360.466 531.347 360.723 530.874 360.909C530.4 361.091 529.868 361.182 529.277 361.182ZM540.771 355.75V361H539.43V352.273H540.726V353.636H540.839C541.044 353.193 541.355 352.837 541.771 352.568C542.188 352.295 542.726 352.159 543.385 352.159C543.976 352.159 544.493 352.28 544.936 352.523C545.379 352.761 545.724 353.125 545.97 353.614C546.216 354.098 546.339 354.712 546.339 355.455V361H544.999V355.545C544.999 354.86 544.821 354.326 544.464 353.943C544.108 353.557 543.62 353.364 542.999 353.364C542.571 353.364 542.188 353.456 541.851 353.642C541.518 353.828 541.254 354.098 541.061 354.455C540.868 354.811 540.771 355.242 540.771 355.75ZM554.29 357.432V352.273H555.631V361H554.29V359.523H554.199C553.994 359.966 553.676 360.343 553.244 360.653C552.813 360.96 552.267 361.114 551.608 361.114C551.062 361.114 550.578 360.994 550.153 360.756C549.729 360.513 549.396 360.15 549.153 359.665C548.911 359.176 548.79 358.561 548.79 357.818V352.273H550.131V357.727C550.131 358.364 550.309 358.871 550.665 359.25C551.025 359.629 551.483 359.818 552.04 359.818C552.373 359.818 552.712 359.733 553.057 359.562C553.405 359.392 553.697 359.131 553.932 358.778C554.17 358.426 554.29 357.977 554.29 357.432ZM551.608 351.091L552.994 348.455H554.562L552.79 351.091H551.608ZM558.087 361V352.273H559.382V353.636H559.496C559.678 353.17 559.971 352.809 560.376 352.551C560.782 352.29 561.268 352.159 561.837 352.159C562.412 352.159 562.892 352.29 563.274 352.551C563.661 352.809 563.962 353.17 564.178 353.636H564.268C564.492 353.186 564.827 352.828 565.274 352.562C565.721 352.294 566.257 352.159 566.882 352.159C567.662 352.159 568.301 352.403 568.797 352.892C569.293 353.377 569.541 354.133 569.541 355.159V361H568.2V355.159C568.2 354.515 568.024 354.055 567.672 353.778C567.32 353.502 566.905 353.364 566.428 353.364C565.814 353.364 565.339 353.549 565.001 353.92C564.664 354.288 564.496 354.754 564.496 355.318V361H563.132V355.023C563.132 354.527 562.971 354.127 562.649 353.824C562.327 353.517 561.912 353.364 561.405 353.364C561.056 353.364 560.731 353.456 560.428 353.642C560.128 353.828 559.886 354.085 559.7 354.415C559.518 354.741 559.428 355.117 559.428 355.545V361H558.087ZM575.652 361.182C574.811 361.182 574.086 360.996 573.476 360.625C572.87 360.25 572.402 359.727 572.072 359.057C571.747 358.383 571.584 357.598 571.584 356.705C571.584 355.811 571.747 355.023 572.072 354.341C572.402 353.655 572.86 353.121 573.447 352.739C574.038 352.352 574.728 352.159 575.516 352.159C575.97 352.159 576.419 352.235 576.862 352.386C577.305 352.538 577.709 352.784 578.072 353.125C578.436 353.462 578.726 353.909 578.942 354.466C579.158 355.023 579.266 355.708 579.266 356.523V357.091H572.538V355.932H577.902C577.902 355.439 577.804 355 577.607 354.614C577.413 354.227 577.137 353.922 576.777 353.699C576.421 353.475 576 353.364 575.516 353.364C574.982 353.364 574.519 353.496 574.129 353.761C573.743 354.023 573.446 354.364 573.237 354.784C573.029 355.205 572.925 355.655 572.925 356.136V356.909C572.925 357.568 573.038 358.127 573.266 358.585C573.497 359.04 573.817 359.386 574.226 359.625C574.635 359.86 575.11 359.977 575.652 359.977C576.004 359.977 576.322 359.928 576.607 359.83C576.894 359.727 577.143 359.576 577.351 359.375C577.559 359.17 577.72 358.917 577.834 358.614L579.129 358.977C578.993 359.417 578.764 359.803 578.442 360.136C578.12 360.466 577.722 360.723 577.249 360.909C576.775 361.091 576.243 361.182 575.652 361.182ZM581.305 361V352.273H582.601V353.591H582.692C582.851 353.159 583.139 352.809 583.555 352.54C583.972 352.271 584.442 352.136 584.964 352.136C585.063 352.136 585.186 352.138 585.334 352.142C585.482 352.146 585.593 352.152 585.669 352.159V353.523C585.624 353.511 585.519 353.494 585.357 353.472C585.197 353.445 585.029 353.432 584.851 353.432C584.427 353.432 584.048 353.521 583.714 353.699C583.385 353.873 583.124 354.116 582.93 354.426C582.741 354.733 582.646 355.083 582.646 355.477V361H581.305ZM590.538 361.182C589.75 361.182 589.059 360.994 588.464 360.619C587.874 360.244 587.411 359.72 587.078 359.045C586.749 358.371 586.584 357.583 586.584 356.682C586.584 355.773 586.749 354.979 587.078 354.301C587.411 353.623 587.874 353.097 588.464 352.722C589.059 352.347 589.75 352.159 590.538 352.159C591.326 352.159 592.016 352.347 592.607 352.722C593.201 353.097 593.663 353.623 593.993 354.301C594.326 354.979 594.493 355.773 594.493 356.682C594.493 357.583 594.326 358.371 593.993 359.045C593.663 359.72 593.201 360.244 592.607 360.619C592.016 360.994 591.326 361.182 590.538 361.182ZM590.538 359.977C591.137 359.977 591.629 359.824 592.016 359.517C592.402 359.21 592.688 358.807 592.874 358.307C593.059 357.807 593.152 357.265 593.152 356.682C593.152 356.098 593.059 355.555 592.874 355.051C592.688 354.547 592.402 354.14 592.016 353.83C591.629 353.519 591.137 353.364 590.538 353.364C589.94 353.364 589.447 353.519 589.061 353.83C588.675 354.14 588.389 354.547 588.203 355.051C588.018 355.555 587.925 356.098 587.925 356.682C587.925 357.265 588.018 357.807 588.203 358.307C588.389 358.807 588.675 359.21 589.061 359.517C589.447 359.824 589.94 359.977 590.538 359.977ZM602.722 354.227L601.517 354.568C601.441 354.367 601.33 354.172 601.182 353.983C601.038 353.79 600.841 353.631 600.591 353.506C600.341 353.381 600.021 353.318 599.631 353.318C599.097 353.318 598.652 353.441 598.295 353.688C597.943 353.93 597.767 354.239 597.767 354.614C597.767 354.947 597.888 355.21 598.131 355.403C598.373 355.597 598.752 355.758 599.267 355.886L600.562 356.205C601.343 356.394 601.924 356.684 602.307 357.074C602.689 357.46 602.881 357.958 602.881 358.568C602.881 359.068 602.737 359.515 602.449 359.909C602.165 360.303 601.767 360.614 601.256 360.841C600.744 361.068 600.15 361.182 599.472 361.182C598.581 361.182 597.845 360.989 597.261 360.602C596.678 360.216 596.309 359.652 596.153 358.909L597.426 358.591C597.547 359.061 597.777 359.413 598.114 359.648C598.455 359.883 598.9 360 599.449 360C600.074 360 600.57 359.867 600.938 359.602C601.309 359.333 601.494 359.011 601.494 358.636C601.494 358.333 601.388 358.08 601.176 357.875C600.964 357.667 600.638 357.511 600.199 357.409L598.744 357.068C597.945 356.879 597.358 356.585 596.983 356.188C596.612 355.786 596.426 355.284 596.426 354.682C596.426 354.189 596.564 353.754 596.841 353.375C597.121 352.996 597.502 352.699 597.983 352.483C598.468 352.267 599.017 352.159 599.631 352.159C600.494 352.159 601.172 352.348 601.665 352.727C602.161 353.106 602.513 353.606 602.722 354.227ZM609.581 361V349.364H610.922V353.659H611.036C611.134 353.508 611.27 353.314 611.445 353.08C611.623 352.841 611.876 352.629 612.206 352.443C612.539 352.254 612.99 352.159 613.558 352.159C614.293 352.159 614.941 352.343 615.501 352.71C616.062 353.078 616.5 353.598 616.814 354.273C617.128 354.947 617.286 355.742 617.286 356.659C617.286 357.583 617.128 358.384 616.814 359.062C616.5 359.737 616.064 360.259 615.507 360.631C614.95 360.998 614.308 361.182 613.581 361.182C613.02 361.182 612.571 361.089 612.234 360.903C611.897 360.714 611.638 360.5 611.456 360.261C611.274 360.019 611.134 359.818 611.036 359.659H610.876V361H609.581ZM610.899 356.636C610.899 357.295 610.996 357.877 611.189 358.381C611.382 358.881 611.664 359.273 612.036 359.557C612.407 359.837 612.861 359.977 613.399 359.977C613.96 359.977 614.428 359.83 614.803 359.534C615.181 359.235 615.465 358.833 615.655 358.33C615.848 357.822 615.945 357.258 615.945 356.636C615.945 356.023 615.85 355.47 615.661 354.977C615.475 354.481 615.193 354.089 614.814 353.801C614.439 353.509 613.967 353.364 613.399 353.364C612.854 353.364 612.395 353.502 612.024 353.778C611.653 354.051 611.373 354.434 611.183 354.926C610.994 355.415 610.899 355.985 610.899 356.636ZM619.337 361V352.273H620.678V361H619.337ZM620.018 350.818C619.757 350.818 619.532 350.729 619.342 350.551C619.157 350.373 619.064 350.159 619.064 349.909C619.064 349.659 619.157 349.445 619.342 349.267C619.532 349.089 619.757 349 620.018 349C620.28 349 620.503 349.089 620.689 349.267C620.878 349.445 620.973 349.659 620.973 349.909C620.973 350.159 620.878 350.373 620.689 350.551C620.503 350.729 620.28 350.818 620.018 350.818ZM624.474 355.75V361H623.134V352.273H624.429V353.636H624.543C624.747 353.193 625.058 352.837 625.474 352.568C625.891 352.295 626.429 352.159 627.088 352.159C627.679 352.159 628.196 352.28 628.639 352.523C629.082 352.761 629.427 353.125 629.673 353.614C629.92 354.098 630.043 354.712 630.043 355.455V361H628.702V355.545C628.702 354.86 628.524 354.326 628.168 353.943C627.812 353.557 627.323 353.364 626.702 353.364C626.274 353.364 625.891 353.456 625.554 353.642C625.221 353.828 624.957 354.098 624.764 354.455C624.571 354.811 624.474 355.242 624.474 355.75ZM635.061 361.205C634.508 361.205 634.006 361.1 633.555 360.892C633.105 360.68 632.747 360.375 632.482 359.977C632.216 359.576 632.084 359.091 632.084 358.523C632.084 358.023 632.182 357.617 632.379 357.307C632.576 356.992 632.839 356.746 633.169 356.568C633.499 356.39 633.862 356.258 634.26 356.17C634.661 356.08 635.065 356.008 635.47 355.955C636 355.886 636.43 355.835 636.76 355.801C637.093 355.763 637.336 355.701 637.487 355.614C637.643 355.527 637.72 355.375 637.72 355.159V355.114C637.72 354.553 637.567 354.117 637.26 353.807C636.957 353.496 636.497 353.341 635.879 353.341C635.239 353.341 634.737 353.481 634.374 353.761C634.01 354.042 633.754 354.341 633.607 354.659L632.334 354.205C632.561 353.674 632.864 353.261 633.243 352.966C633.625 352.667 634.042 352.458 634.493 352.341C634.947 352.22 635.394 352.159 635.834 352.159C636.114 352.159 636.436 352.193 636.8 352.261C637.167 352.326 637.521 352.46 637.862 352.665C638.207 352.869 638.493 353.178 638.72 353.591C638.947 354.004 639.061 354.557 639.061 355.25V361H637.72V359.818H637.652C637.561 360.008 637.41 360.21 637.197 360.426C636.985 360.642 636.703 360.826 636.351 360.977C635.999 361.129 635.569 361.205 635.061 361.205ZM635.266 360C635.796 360 636.243 359.896 636.607 359.688C636.974 359.479 637.25 359.21 637.436 358.881C637.625 358.551 637.72 358.205 637.72 357.841V356.614C637.663 356.682 637.538 356.744 637.345 356.801C637.156 356.854 636.936 356.902 636.686 356.943C636.44 356.981 636.199 357.015 635.964 357.045C635.733 357.072 635.546 357.095 635.402 357.114C635.054 357.159 634.728 357.233 634.425 357.335C634.125 357.434 633.883 357.583 633.697 357.784C633.516 357.981 633.425 358.25 633.425 358.591C633.425 359.057 633.597 359.409 633.942 359.648C634.29 359.883 634.732 360 635.266 360ZM635.311 351.091L636.697 348.455H638.266L636.493 351.091H635.311ZM641.509 361V352.273H642.804V353.591H642.895C643.054 353.159 643.342 352.809 643.759 352.54C644.175 352.271 644.645 352.136 645.168 352.136C645.266 352.136 645.389 352.138 645.537 352.142C645.685 352.146 645.796 352.152 645.872 352.159V353.523C645.827 353.511 645.723 353.494 645.56 353.472C645.401 353.445 645.232 353.432 645.054 353.432C644.63 353.432 644.251 353.521 643.918 353.699C643.588 353.873 643.327 354.116 643.134 354.426C642.944 354.733 642.849 355.083 642.849 355.477V361H641.509ZM647.462 361V352.273H648.803V361H647.462ZM648.143 350.818C647.882 350.818 647.657 350.729 647.467 350.551C647.282 350.373 647.189 350.159 647.189 349.909C647.189 349.659 647.282 349.445 647.467 349.267C647.657 349.089 647.882 349 648.143 349C648.405 349 648.628 349.089 648.814 349.267C649.003 349.445 649.098 349.659 649.098 349.909C649.098 350.159 649.003 350.373 648.814 350.551C648.628 350.729 648.405 350.818 648.143 350.818ZM654.804 361.182C654.016 361.182 653.325 360.994 652.73 360.619C652.139 360.244 651.677 359.72 651.344 359.045C651.014 358.371 650.849 357.583 650.849 356.682C650.849 355.773 651.014 354.979 651.344 354.301C651.677 353.623 652.139 353.097 652.73 352.722C653.325 352.347 654.016 352.159 654.804 352.159C655.592 352.159 656.281 352.347 656.872 352.722C657.467 353.097 657.929 353.623 658.259 354.301C658.592 354.979 658.759 355.773 658.759 356.682C658.759 357.583 658.592 358.371 658.259 359.045C657.929 359.72 657.467 360.244 656.872 360.619C656.281 360.994 655.592 361.182 654.804 361.182ZM654.804 359.977C655.402 359.977 655.895 359.824 656.281 359.517C656.668 359.21 656.954 358.807 657.139 358.307C657.325 357.807 657.418 357.265 657.418 356.682C657.418 356.098 657.325 355.555 657.139 355.051C656.954 354.547 656.668 354.14 656.281 353.83C655.895 353.519 655.402 353.364 654.804 353.364C654.205 353.364 653.713 353.519 653.327 353.83C652.94 354.14 652.654 354.547 652.469 355.051C652.283 355.555 652.19 356.098 652.19 356.682C652.19 357.265 652.283 357.807 652.469 358.307C652.654 358.807 652.94 359.21 653.327 359.517C653.713 359.824 654.205 359.977 654.804 359.977ZM666.987 354.227L665.783 354.568C665.707 354.367 665.595 354.172 665.447 353.983C665.304 353.79 665.107 353.631 664.857 353.506C664.607 353.381 664.286 353.318 663.896 353.318C663.362 353.318 662.917 353.441 662.561 353.688C662.209 353.93 662.033 354.239 662.033 354.614C662.033 354.947 662.154 355.21 662.396 355.403C662.639 355.597 663.018 355.758 663.533 355.886L664.828 356.205C665.608 356.394 666.19 356.684 666.572 357.074C666.955 357.46 667.146 357.958 667.146 358.568C667.146 359.068 667.002 359.515 666.714 359.909C666.43 360.303 666.033 360.614 665.521 360.841C665.01 361.068 664.415 361.182 663.737 361.182C662.847 361.182 662.11 360.989 661.527 360.602C660.944 360.216 660.574 359.652 660.419 358.909L661.692 358.591C661.813 359.061 662.042 359.413 662.379 359.648C662.72 359.883 663.165 360 663.714 360C664.339 360 664.836 359.867 665.203 359.602C665.574 359.333 665.76 359.011 665.76 358.636C665.76 358.333 665.654 358.08 665.442 357.875C665.23 357.667 664.904 357.511 664.464 357.409L663.01 357.068C662.211 356.879 661.624 356.585 661.249 356.188C660.877 355.786 660.692 355.284 660.692 354.682C660.692 354.189 660.83 353.754 661.107 353.375C661.387 352.996 661.768 352.699 662.249 352.483C662.733 352.267 663.283 352.159 663.896 352.159C664.76 352.159 665.438 352.348 665.93 352.727C666.427 353.106 666.779 353.606 666.987 354.227ZM677.324 361.182C676.483 361.182 675.758 360.996 675.148 360.625C674.542 360.25 674.074 359.727 673.744 359.057C673.419 358.383 673.256 357.598 673.256 356.705C673.256 355.811 673.419 355.023 673.744 354.341C674.074 353.655 674.532 353.121 675.119 352.739C675.71 352.352 676.4 352.159 677.188 352.159C677.642 352.159 678.091 352.235 678.534 352.386C678.977 352.538 679.381 352.784 679.744 353.125C680.108 353.462 680.398 353.909 680.614 354.466C680.83 355.023 680.938 355.708 680.938 356.523V357.091H674.21V355.932H679.574C679.574 355.439 679.475 355 679.278 354.614C679.085 354.227 678.809 353.922 678.449 353.699C678.093 353.475 677.672 353.364 677.188 353.364C676.653 353.364 676.191 353.496 675.801 353.761C675.415 354.023 675.117 354.364 674.909 354.784C674.701 355.205 674.597 355.655 674.597 356.136V356.909C674.597 357.568 674.71 358.127 674.938 358.585C675.169 359.04 675.489 359.386 675.898 359.625C676.307 359.86 676.782 359.977 677.324 359.977C677.676 359.977 677.994 359.928 678.278 359.83C678.566 359.727 678.814 359.576 679.023 359.375C679.231 359.17 679.392 358.917 679.506 358.614L680.801 358.977C680.665 359.417 680.436 359.803 680.114 360.136C679.792 360.466 679.394 360.723 678.92 360.909C678.447 361.091 677.915 361.182 677.324 361.182ZM682.977 361V352.273H684.273V353.636H684.386C684.568 353.17 684.862 352.809 685.267 352.551C685.672 352.29 686.159 352.159 686.727 352.159C687.303 352.159 687.782 352.29 688.165 352.551C688.551 352.809 688.852 353.17 689.068 353.636H689.159C689.383 353.186 689.718 352.828 690.165 352.562C690.612 352.294 691.148 352.159 691.773 352.159C692.553 352.159 693.191 352.403 693.688 352.892C694.184 353.377 694.432 354.133 694.432 355.159V361H693.091V355.159C693.091 354.515 692.915 354.055 692.562 353.778C692.21 353.502 691.795 353.364 691.318 353.364C690.705 353.364 690.229 353.549 689.892 353.92C689.555 354.288 689.386 354.754 689.386 355.318V361H688.023V355.023C688.023 354.527 687.862 354.127 687.54 353.824C687.218 353.517 686.803 353.364 686.295 353.364C685.947 353.364 685.621 353.456 685.318 353.642C685.019 353.828 684.777 354.085 684.591 354.415C684.409 354.741 684.318 355.117 684.318 355.545V361H682.977ZM704.679 361.182C703.952 361.182 703.31 360.998 702.753 360.631C702.196 360.259 701.76 359.737 701.446 359.062C701.132 358.384 700.974 357.583 700.974 356.659C700.974 355.742 701.132 354.947 701.446 354.273C701.76 353.598 702.198 353.078 702.759 352.71C703.319 352.343 703.967 352.159 704.702 352.159C705.27 352.159 705.719 352.254 706.048 352.443C706.382 352.629 706.635 352.841 706.81 353.08C706.988 353.314 707.126 353.508 707.224 353.659H707.338V349.364H708.679V361H707.384V359.659H707.224C707.126 359.818 706.986 360.019 706.804 360.261C706.622 360.5 706.363 360.714 706.026 360.903C705.688 361.089 705.24 361.182 704.679 361.182ZM704.861 359.977C705.399 359.977 705.853 359.837 706.224 359.557C706.596 359.273 706.878 358.881 707.071 358.381C707.264 357.877 707.361 357.295 707.361 356.636C707.361 355.985 707.266 355.415 707.077 354.926C706.887 354.434 706.607 354.051 706.236 353.778C705.865 353.502 705.406 353.364 704.861 353.364C704.293 353.364 703.819 353.509 703.44 353.801C703.065 354.089 702.783 354.481 702.594 354.977C702.408 355.47 702.315 356.023 702.315 356.636C702.315 357.258 702.41 357.822 702.599 358.33C702.793 358.833 703.077 359.235 703.452 359.534C703.83 359.83 704.3 359.977 704.861 359.977ZM714.98 361.182C714.139 361.182 713.414 360.996 712.804 360.625C712.198 360.25 711.73 359.727 711.401 359.057C711.075 358.383 710.912 357.598 710.912 356.705C710.912 355.811 711.075 355.023 711.401 354.341C711.73 353.655 712.188 353.121 712.776 352.739C713.366 352.352 714.056 352.159 714.844 352.159C715.298 352.159 715.747 352.235 716.19 352.386C716.634 352.538 717.037 352.784 717.401 353.125C717.764 353.462 718.054 353.909 718.27 354.466C718.486 355.023 718.594 355.708 718.594 356.523V357.091H711.866V355.932H717.23C717.23 355.439 717.132 355 716.935 354.614C716.741 354.227 716.465 353.922 716.105 353.699C715.749 353.475 715.329 353.364 714.844 353.364C714.31 353.364 713.848 353.496 713.457 353.761C713.071 354.023 712.774 354.364 712.565 354.784C712.357 355.205 712.253 355.655 712.253 356.136V356.909C712.253 357.568 712.366 358.127 712.594 358.585C712.825 359.04 713.145 359.386 713.554 359.625C713.963 359.86 714.438 359.977 714.98 359.977C715.332 359.977 715.651 359.928 715.935 359.83C716.223 359.727 716.471 359.576 716.679 359.375C716.887 359.17 717.048 358.917 717.162 358.614L718.457 358.977C718.321 359.417 718.092 359.803 717.77 360.136C717.448 360.466 717.05 360.723 716.577 360.909C716.103 361.091 715.571 361.182 714.98 361.182ZM724.179 361.182C723.361 361.182 722.656 360.989 722.065 360.602C721.474 360.216 721.02 359.684 720.702 359.006C720.384 358.328 720.224 357.553 720.224 356.682C720.224 355.795 720.387 355.013 720.713 354.335C721.043 353.653 721.501 353.121 722.088 352.739C722.679 352.352 723.368 352.159 724.156 352.159C724.77 352.159 725.323 352.273 725.815 352.5C726.308 352.727 726.711 353.045 727.026 353.455C727.34 353.864 727.535 354.341 727.611 354.886H726.27C726.168 354.489 725.94 354.136 725.588 353.83C725.24 353.519 724.77 353.364 724.179 353.364C723.656 353.364 723.198 353.5 722.804 353.773C722.414 354.042 722.109 354.422 721.889 354.915C721.673 355.403 721.565 355.977 721.565 356.636C721.565 357.311 721.671 357.898 721.884 358.398C722.099 358.898 722.402 359.286 722.793 359.562C723.187 359.839 723.649 359.977 724.179 359.977C724.527 359.977 724.844 359.917 725.128 359.795C725.412 359.674 725.652 359.5 725.849 359.273C726.046 359.045 726.187 358.773 726.27 358.455H727.611C727.535 358.97 727.348 359.434 727.048 359.847C726.753 360.256 726.361 360.581 725.872 360.824C725.387 361.062 724.823 361.182 724.179 361.182ZM729.571 361V352.273H730.912V361H729.571ZM730.253 350.818C729.991 350.818 729.766 350.729 729.577 350.551C729.391 350.373 729.298 350.159 729.298 349.909C729.298 349.659 729.391 349.445 729.577 349.267C729.766 349.089 729.991 349 730.253 349C730.514 349 730.738 349.089 730.923 349.267C731.113 349.445 731.207 349.659 731.207 349.909C731.207 350.159 731.113 350.373 730.923 350.551C730.738 350.729 730.514 350.818 730.253 350.818ZM733.368 361V352.273H734.663V353.636H734.777C734.959 353.17 735.252 352.809 735.658 352.551C736.063 352.29 736.55 352.159 737.118 352.159C737.694 352.159 738.173 352.29 738.555 352.551C738.942 352.809 739.243 353.17 739.459 353.636H739.55C739.773 353.186 740.108 352.828 740.555 352.562C741.002 352.294 741.538 352.159 742.163 352.159C742.944 352.159 743.582 352.403 744.078 352.892C744.574 353.377 744.822 354.133 744.822 355.159V361H743.482V355.159C743.482 354.515 743.305 354.055 742.953 353.778C742.601 353.502 742.186 353.364 741.709 353.364C741.095 353.364 740.62 353.549 740.283 353.92C739.946 354.288 739.777 354.754 739.777 355.318V361H738.413V355.023C738.413 354.527 738.252 354.127 737.93 353.824C737.608 353.517 737.194 353.364 736.686 353.364C736.338 353.364 736.012 353.456 735.709 353.642C735.41 353.828 735.167 354.085 734.982 354.415C734.8 354.741 734.709 355.117 734.709 355.545V361H733.368ZM749.842 361.205C749.289 361.205 748.787 361.1 748.337 360.892C747.886 360.68 747.528 360.375 747.263 359.977C746.998 359.576 746.865 359.091 746.865 358.523C746.865 358.023 746.964 357.617 747.161 357.307C747.357 356.992 747.621 356.746 747.95 356.568C748.28 356.39 748.643 356.258 749.041 356.17C749.443 356.08 749.846 356.008 750.251 355.955C750.782 355.886 751.212 355.835 751.541 355.801C751.875 355.763 752.117 355.701 752.268 355.614C752.424 355.527 752.501 355.375 752.501 355.159V355.114C752.501 354.553 752.348 354.117 752.041 353.807C751.738 353.496 751.278 353.341 750.661 353.341C750.02 353.341 749.518 353.481 749.155 353.761C748.791 354.042 748.536 354.341 748.388 354.659L747.115 354.205C747.342 353.674 747.645 353.261 748.024 352.966C748.407 352.667 748.823 352.458 749.274 352.341C749.729 352.22 750.176 352.159 750.615 352.159C750.895 352.159 751.217 352.193 751.581 352.261C751.948 352.326 752.303 352.46 752.643 352.665C752.988 352.869 753.274 353.178 753.501 353.591C753.729 354.004 753.842 354.557 753.842 355.25V361H752.501V359.818H752.433C752.342 360.008 752.191 360.21 751.979 360.426C751.767 360.642 751.484 360.826 751.132 360.977C750.78 361.129 750.35 361.205 749.842 361.205ZM750.047 360C750.577 360 751.024 359.896 751.388 359.688C751.755 359.479 752.032 359.21 752.217 358.881C752.407 358.551 752.501 358.205 752.501 357.841V356.614C752.445 356.682 752.32 356.744 752.126 356.801C751.937 356.854 751.717 356.902 751.467 356.943C751.221 356.981 750.981 357.015 750.746 357.045C750.515 357.072 750.327 357.095 750.183 357.114C749.835 357.159 749.509 357.233 749.206 357.335C748.907 357.434 748.664 357.583 748.479 357.784C748.297 357.981 748.206 358.25 748.206 358.591C748.206 359.057 748.378 359.409 748.723 359.648C749.071 359.883 749.513 360 750.047 360ZM756.29 361V352.273H757.631V361H756.29ZM756.972 350.818C756.71 350.818 756.485 350.729 756.295 350.551C756.11 350.373 756.017 350.159 756.017 349.909C756.017 349.659 756.11 349.445 756.295 349.267C756.485 349.089 756.71 349 756.972 349C757.233 349 757.456 349.089 757.642 349.267C757.831 349.445 757.926 349.659 757.926 349.909C757.926 350.159 757.831 350.373 757.642 350.551C757.456 350.729 757.233 350.818 756.972 350.818ZM766.268 354.227L765.064 354.568C764.988 354.367 764.876 354.172 764.729 353.983C764.585 353.79 764.388 353.631 764.138 353.506C763.888 353.381 763.568 353.318 763.178 353.318C762.643 353.318 762.198 353.441 761.842 353.688C761.49 353.93 761.314 354.239 761.314 354.614C761.314 354.947 761.435 355.21 761.678 355.403C761.92 355.597 762.299 355.758 762.814 355.886L764.109 356.205C764.89 356.394 765.471 356.684 765.854 357.074C766.236 357.46 766.428 357.958 766.428 358.568C766.428 359.068 766.284 359.515 765.996 359.909C765.712 360.303 765.314 360.614 764.803 360.841C764.291 361.068 763.696 361.182 763.018 361.182C762.128 361.182 761.392 360.989 760.808 360.602C760.225 360.216 759.856 359.652 759.7 358.909L760.973 358.591C761.094 359.061 761.323 359.413 761.661 359.648C762.001 359.883 762.446 360 762.996 360C763.621 360 764.117 359.867 764.484 359.602C764.856 359.333 765.041 359.011 765.041 358.636C765.041 358.333 764.935 358.08 764.723 357.875C764.511 357.667 764.185 357.511 763.746 357.409L762.291 357.068C761.492 356.879 760.905 356.585 760.53 356.188C760.159 355.786 759.973 355.284 759.973 354.682C759.973 354.189 760.111 353.754 760.388 353.375C760.668 352.996 761.049 352.699 761.53 352.483C762.015 352.267 762.564 352.159 763.178 352.159C764.041 352.159 764.719 352.348 765.212 352.727C765.708 353.106 766.06 353.606 766.268 354.227Z" fill="#111111"/>
<rect x="209.5" y="443.5" width="345" height="78" stroke="#111111"/>
<rect x="647.5" y="443.5" width="343" height="78" stroke="#111111"/>
<rect x="880.5" y="546.5" width="110" height="33" stroke="#111111"/>
<path opacity="0.8" d="M617.707 483.707C618.098 483.317 618.098 482.683 617.707 482.293L611.343 475.929C610.953 475.538 610.319 475.538 609.929 475.929C609.538 476.319 609.538 476.953 609.929 477.343L615.586 483L609.929 488.657C609.538 489.047 609.538 489.681 609.929 490.071C610.319 490.462 610.953 490.462 611.343 490.071L617.707 483.707ZM585 484H617V482H585V484Z" fill="#111111"/>
<path opacity="0.8" d="M226 429H222.409V417.364H226.159C227.288 417.364 228.254 417.597 229.057 418.062C229.86 418.525 230.475 419.189 230.903 420.057C231.331 420.92 231.545 421.955 231.545 423.159C231.545 424.371 231.33 425.415 230.898 426.29C230.466 427.161 229.837 427.831 229.011 428.301C228.186 428.767 227.182 429 226 429ZM223.818 427.75H225.909C226.871 427.75 227.669 427.564 228.301 427.193C228.934 426.822 229.405 426.294 229.716 425.608C230.027 424.922 230.182 424.106 230.182 423.159C230.182 422.22 230.028 421.411 229.722 420.733C229.415 420.051 228.956 419.528 228.347 419.165C227.737 418.797 226.977 418.614 226.068 418.614H223.818V427.75ZM237.386 429.182C236.545 429.182 235.82 428.996 235.21 428.625C234.604 428.25 234.136 427.727 233.807 427.057C233.481 426.383 233.318 425.598 233.318 424.705C233.318 423.811 233.481 423.023 233.807 422.341C234.136 421.655 234.595 421.121 235.182 420.739C235.773 420.352 236.462 420.159 237.25 420.159C237.705 420.159 238.153 420.235 238.597 420.386C239.04 420.538 239.443 420.784 239.807 421.125C240.17 421.462 240.46 421.909 240.676 422.466C240.892 423.023 241 423.708 241 424.523V425.091H234.273V423.932H239.636C239.636 423.439 239.538 423 239.341 422.614C239.148 422.227 238.871 421.922 238.511 421.699C238.155 421.475 237.735 421.364 237.25 421.364C236.716 421.364 236.254 421.496 235.864 421.761C235.477 422.023 235.18 422.364 234.972 422.784C234.763 423.205 234.659 423.655 234.659 424.136V424.909C234.659 425.568 234.773 426.127 235 426.585C235.231 427.04 235.551 427.386 235.96 427.625C236.369 427.86 236.845 427.977 237.386 427.977C237.739 427.977 238.057 427.928 238.341 427.83C238.629 427.727 238.877 427.576 239.085 427.375C239.294 427.17 239.455 426.917 239.568 426.614L240.864 426.977C240.727 427.417 240.498 427.803 240.176 428.136C239.854 428.466 239.456 428.723 238.983 428.909C238.509 429.091 237.977 429.182 237.386 429.182ZM246.585 429.182C245.767 429.182 245.063 428.989 244.472 428.602C243.881 428.216 243.426 427.684 243.108 427.006C242.79 426.328 242.631 425.553 242.631 424.682C242.631 423.795 242.794 423.013 243.119 422.335C243.449 421.653 243.907 421.121 244.494 420.739C245.085 420.352 245.775 420.159 246.562 420.159C247.176 420.159 247.729 420.273 248.222 420.5C248.714 420.727 249.117 421.045 249.432 421.455C249.746 421.864 249.941 422.341 250.017 422.886H248.676C248.574 422.489 248.347 422.136 247.994 421.83C247.646 421.519 247.176 421.364 246.585 421.364C246.063 421.364 245.604 421.5 245.21 421.773C244.82 422.042 244.515 422.422 244.295 422.915C244.08 423.403 243.972 423.977 243.972 424.636C243.972 425.311 244.078 425.898 244.29 426.398C244.506 426.898 244.809 427.286 245.199 427.562C245.593 427.839 246.055 427.977 246.585 427.977C246.934 427.977 247.25 427.917 247.534 427.795C247.818 427.674 248.059 427.5 248.256 427.273C248.453 427.045 248.593 426.773 248.676 426.455H250.017C249.941 426.97 249.754 427.434 249.455 427.847C249.159 428.256 248.767 428.581 248.278 428.824C247.794 429.062 247.229 429.182 246.585 429.182ZM251.977 429V420.273H253.318V429H251.977ZM252.659 418.818C252.398 418.818 252.172 418.729 251.983 418.551C251.797 418.373 251.705 418.159 251.705 417.909C251.705 417.659 251.797 417.445 251.983 417.267C252.172 417.089 252.398 417 252.659 417C252.92 417 253.144 417.089 253.33 417.267C253.519 417.445 253.614 417.659 253.614 417.909C253.614 418.159 253.519 418.373 253.33 418.551C253.144 418.729 252.92 418.818 252.659 418.818ZM255.774 429V420.273H257.07V421.636H257.183C257.365 421.17 257.659 420.809 258.064 420.551C258.469 420.29 258.956 420.159 259.524 420.159C260.1 420.159 260.579 420.29 260.962 420.551C261.348 420.809 261.649 421.17 261.865 421.636H261.956C262.179 421.186 262.515 420.828 262.962 420.562C263.409 420.294 263.945 420.159 264.57 420.159C265.35 420.159 265.988 420.403 266.484 420.892C266.981 421.377 267.229 422.133 267.229 423.159V429H265.888V423.159C265.888 422.515 265.712 422.055 265.359 421.778C265.007 421.502 264.592 421.364 264.115 421.364C263.501 421.364 263.026 421.549 262.689 421.92C262.352 422.288 262.183 422.754 262.183 423.318V429H260.82V423.023C260.82 422.527 260.659 422.127 260.337 421.824C260.015 421.517 259.6 421.364 259.092 421.364C258.744 421.364 258.418 421.456 258.115 421.642C257.816 421.828 257.573 422.085 257.388 422.415C257.206 422.741 257.115 423.117 257.115 423.545V429H255.774ZM272.249 429.205C271.696 429.205 271.194 429.1 270.743 428.892C270.292 428.68 269.934 428.375 269.669 427.977C269.404 427.576 269.271 427.091 269.271 426.523C269.271 426.023 269.37 425.617 269.567 425.307C269.764 424.992 270.027 424.746 270.357 424.568C270.686 424.39 271.05 424.258 271.447 424.17C271.849 424.08 272.252 424.008 272.658 423.955C273.188 423.886 273.618 423.835 273.947 423.801C274.281 423.763 274.523 423.701 274.675 423.614C274.83 423.527 274.908 423.375 274.908 423.159V423.114C274.908 422.553 274.754 422.117 274.447 421.807C274.144 421.496 273.684 421.341 273.067 421.341C272.427 421.341 271.925 421.481 271.561 421.761C271.197 422.042 270.942 422.341 270.794 422.659L269.521 422.205C269.749 421.674 270.052 421.261 270.43 420.966C270.813 420.667 271.23 420.458 271.68 420.341C272.135 420.22 272.582 420.159 273.021 420.159C273.302 420.159 273.624 420.193 273.987 420.261C274.355 420.326 274.709 420.46 275.05 420.665C275.394 420.869 275.68 421.178 275.908 421.591C276.135 422.004 276.249 422.557 276.249 423.25V429H274.908V427.818H274.839C274.749 428.008 274.597 428.21 274.385 428.426C274.173 428.642 273.891 428.826 273.538 428.977C273.186 429.129 272.756 429.205 272.249 429.205ZM272.453 428C272.983 428 273.43 427.896 273.794 427.688C274.161 427.479 274.438 427.21 274.624 426.881C274.813 426.551 274.908 426.205 274.908 425.841V424.614C274.851 424.682 274.726 424.744 274.533 424.801C274.343 424.854 274.124 424.902 273.874 424.943C273.627 424.981 273.387 425.015 273.152 425.045C272.921 425.072 272.733 425.095 272.589 425.114C272.241 425.159 271.915 425.233 271.612 425.335C271.313 425.434 271.071 425.583 270.885 425.784C270.703 425.981 270.612 426.25 270.612 426.591C270.612 427.057 270.785 427.409 271.129 427.648C271.478 427.883 271.919 428 272.453 428ZM280.037 417.364V429H278.696V417.364H280.037Z" fill="white"/>
<path opacity="0.8" d="M660.409 430V418.364H664.477C665.288 418.364 665.956 418.504 666.483 418.784C667.009 419.061 667.402 419.434 667.659 419.903C667.917 420.369 668.045 420.886 668.045 421.455C668.045 421.955 667.956 422.367 667.778 422.693C667.604 423.019 667.373 423.277 667.085 423.466C666.801 423.655 666.492 423.795 666.159 423.886V424C666.515 424.023 666.873 424.148 667.233 424.375C667.593 424.602 667.894 424.928 668.136 425.352C668.379 425.777 668.5 426.295 668.5 426.909C668.5 427.492 668.367 428.017 668.102 428.483C667.837 428.949 667.419 429.318 666.847 429.591C666.275 429.864 665.53 430 664.614 430H660.409ZM661.818 428.75H664.614C665.534 428.75 666.188 428.572 666.574 428.216C666.964 427.856 667.159 427.42 667.159 426.909C667.159 426.515 667.059 426.152 666.858 425.818C666.657 425.481 666.371 425.212 666 425.011C665.629 424.807 665.189 424.705 664.682 424.705H661.818V428.75ZM661.818 423.477H664.432C664.856 423.477 665.239 423.394 665.58 423.227C665.924 423.061 666.197 422.826 666.398 422.523C666.602 422.22 666.705 421.864 666.705 421.455C666.705 420.943 666.527 420.509 666.17 420.153C665.814 419.794 665.25 419.614 664.477 419.614H661.818V423.477ZM670.634 430V421.273H671.974V430H670.634ZM671.315 419.818C671.054 419.818 670.829 419.729 670.639 419.551C670.454 419.373 670.361 419.159 670.361 418.909C670.361 418.659 670.454 418.445 670.639 418.267C670.829 418.089 671.054 418 671.315 418C671.577 418 671.8 418.089 671.986 418.267C672.175 418.445 672.27 418.659 672.27 418.909C672.27 419.159 672.175 419.373 671.986 419.551C671.8 419.729 671.577 419.818 671.315 419.818ZM675.771 424.75V430H674.43V421.273H675.726V422.636H675.839C676.044 422.193 676.355 421.837 676.771 421.568C677.188 421.295 677.726 421.159 678.385 421.159C678.976 421.159 679.493 421.28 679.936 421.523C680.379 421.761 680.724 422.125 680.97 422.614C681.216 423.098 681.339 423.712 681.339 424.455V430H679.999V424.545C679.999 423.86 679.821 423.326 679.464 422.943C679.108 422.557 678.62 422.364 677.999 422.364C677.571 422.364 677.188 422.456 676.851 422.642C676.518 422.828 676.254 423.098 676.061 423.455C675.868 423.811 675.771 424.242 675.771 424.75ZM686.358 430.205C685.805 430.205 685.303 430.1 684.852 429.892C684.402 429.68 684.044 429.375 683.778 428.977C683.513 428.576 683.381 428.091 683.381 427.523C683.381 427.023 683.479 426.617 683.676 426.307C683.873 425.992 684.136 425.746 684.466 425.568C684.795 425.39 685.159 425.258 685.557 425.17C685.958 425.08 686.362 425.008 686.767 424.955C687.297 424.886 687.727 424.835 688.057 424.801C688.39 424.763 688.633 424.701 688.784 424.614C688.939 424.527 689.017 424.375 689.017 424.159V424.114C689.017 423.553 688.864 423.117 688.557 422.807C688.254 422.496 687.794 422.341 687.176 422.341C686.536 422.341 686.034 422.481 685.67 422.761C685.307 423.042 685.051 423.341 684.903 423.659L683.631 423.205C683.858 422.674 684.161 422.261 684.54 421.966C684.922 421.667 685.339 421.458 685.79 421.341C686.244 421.22 686.691 421.159 687.131 421.159C687.411 421.159 687.733 421.193 688.097 421.261C688.464 421.326 688.818 421.46 689.159 421.665C689.504 421.869 689.79 422.178 690.017 422.591C690.244 423.004 690.358 423.557 690.358 424.25V430H689.017V428.818H688.949C688.858 429.008 688.706 429.21 688.494 429.426C688.282 429.642 688 429.826 687.648 429.977C687.295 430.129 686.866 430.205 686.358 430.205ZM686.562 429C687.093 429 687.54 428.896 687.903 428.688C688.271 428.479 688.547 428.21 688.733 427.881C688.922 427.551 689.017 427.205 689.017 426.841V425.614C688.96 425.682 688.835 425.744 688.642 425.801C688.453 425.854 688.233 425.902 687.983 425.943C687.737 425.981 687.496 426.015 687.261 426.045C687.03 426.072 686.843 426.095 686.699 426.114C686.35 426.159 686.025 426.233 685.722 426.335C685.422 426.434 685.18 426.583 684.994 426.784C684.813 426.981 684.722 427.25 684.722 427.591C684.722 428.057 684.894 428.409 685.239 428.648C685.587 428.883 686.028 429 686.562 429ZM686.608 420.091L687.994 417.455H689.562L687.79 420.091H686.608ZM692.805 430V421.273H694.101V422.591H694.192C694.351 422.159 694.639 421.809 695.055 421.54C695.472 421.271 695.942 421.136 696.464 421.136C696.563 421.136 696.686 421.138 696.834 421.142C696.982 421.146 697.093 421.152 697.169 421.159V422.523C697.124 422.511 697.019 422.494 696.857 422.472C696.697 422.445 696.529 422.432 696.351 422.432C695.927 422.432 695.548 422.521 695.214 422.699C694.885 422.873 694.624 423.116 694.43 423.426C694.241 423.733 694.146 424.083 694.146 424.477V430H692.805ZM698.759 430V421.273H700.099V430H698.759ZM699.44 419.818C699.179 419.818 698.954 419.729 698.764 419.551C698.579 419.373 698.486 419.159 698.486 418.909C698.486 418.659 698.579 418.445 698.764 418.267C698.954 418.089 699.179 418 699.44 418C699.702 418 699.925 418.089 700.111 418.267C700.3 418.445 700.395 418.659 700.395 418.909C700.395 419.159 700.3 419.373 700.111 419.551C699.925 419.729 699.702 419.818 699.44 419.818ZM706.101 430.182C705.313 430.182 704.622 429.994 704.027 429.619C703.436 429.244 702.974 428.72 702.641 428.045C702.311 427.371 702.146 426.583 702.146 425.682C702.146 424.773 702.311 423.979 702.641 423.301C702.974 422.623 703.436 422.097 704.027 421.722C704.622 421.347 705.313 421.159 706.101 421.159C706.889 421.159 707.578 421.347 708.169 421.722C708.764 422.097 709.226 422.623 709.555 423.301C709.889 423.979 710.055 424.773 710.055 425.682C710.055 426.583 709.889 427.371 709.555 428.045C709.226 428.72 708.764 429.244 708.169 429.619C707.578 429.994 706.889 430.182 706.101 430.182ZM706.101 428.977C706.699 428.977 707.192 428.824 707.578 428.517C707.964 428.21 708.25 427.807 708.436 427.307C708.622 426.807 708.714 426.265 708.714 425.682C708.714 425.098 708.622 424.555 708.436 424.051C708.25 423.547 707.964 423.14 707.578 422.83C707.192 422.519 706.699 422.364 706.101 422.364C705.502 422.364 705.01 422.519 704.624 422.83C704.237 423.14 703.951 423.547 703.766 424.051C703.58 424.555 703.487 425.098 703.487 425.682C703.487 426.265 703.58 426.807 703.766 427.307C703.951 427.807 704.237 428.21 704.624 428.517C705.01 428.824 705.502 428.977 706.101 428.977Z" fill="white"/>
<path d="M913.719 561.254H911.86C911.807 560.949 911.709 560.679 911.567 560.443C911.424 560.205 911.247 560.002 911.035 559.837C910.823 559.671 910.581 559.547 910.309 559.464C910.04 559.378 909.75 559.335 909.439 559.335C908.885 559.335 908.395 559.474 907.967 559.752C907.54 560.027 907.205 560.432 906.963 560.965C906.721 561.496 906.6 562.143 906.6 562.909C906.6 563.688 906.721 564.344 906.963 564.878C907.208 565.408 907.543 565.809 907.967 566.081C908.395 566.349 908.884 566.484 909.434 566.484C909.739 566.484 910.024 566.444 910.289 566.364C910.558 566.281 910.798 566.161 911.01 566.001C911.225 565.842 911.406 565.647 911.552 565.415C911.701 565.183 911.804 564.918 911.86 564.619L913.719 564.629C913.65 565.113 913.499 565.567 913.267 565.991C913.038 566.416 912.738 566.79 912.367 567.115C911.996 567.437 911.562 567.688 911.065 567.871C910.567 568.05 910.016 568.139 909.409 568.139C908.514 568.139 907.715 567.932 907.013 567.518C906.31 567.103 905.757 566.505 905.352 565.723C904.948 564.941 904.746 564.003 904.746 562.909C904.746 561.812 904.95 560.874 905.357 560.095C905.765 559.313 906.32 558.715 907.023 558.3C907.725 557.886 908.521 557.679 909.409 557.679C909.976 557.679 910.503 557.759 910.99 557.918C911.477 558.077 911.911 558.31 912.293 558.619C912.674 558.924 912.987 559.298 913.232 559.742C913.481 560.183 913.643 560.687 913.719 561.254ZM918.66 568.149C917.914 568.149 917.268 567.985 916.721 567.657C916.174 567.329 915.75 566.87 915.448 566.28C915.15 565.69 915.001 565 915.001 564.212C915.001 563.423 915.15 562.732 915.448 562.138C915.75 561.545 916.174 561.085 916.721 560.756C917.268 560.428 917.914 560.264 918.66 560.264C919.406 560.264 920.052 560.428 920.599 560.756C921.146 561.085 921.568 561.545 921.867 562.138C922.168 562.732 922.319 563.423 922.319 564.212C922.319 565 922.168 565.69 921.867 566.28C921.568 566.87 921.146 567.329 920.599 567.657C920.052 567.985 919.406 568.149 918.66 568.149ZM918.67 566.707C919.074 566.707 919.412 566.596 919.684 566.374C919.956 566.149 920.158 565.847 920.291 565.469C920.427 565.092 920.494 564.671 920.494 564.207C920.494 563.739 920.427 563.317 920.291 562.939C920.158 562.558 919.956 562.254 919.684 562.029C919.412 561.804 919.074 561.691 918.67 561.691C918.256 561.691 917.911 561.804 917.636 562.029C917.364 562.254 917.16 562.558 917.024 562.939C916.892 563.317 916.825 563.739 916.825 564.207C916.825 564.671 916.892 565.092 917.024 565.469C917.16 565.847 917.364 566.149 917.636 566.374C917.911 566.596 918.256 566.707 918.67 566.707ZM925.646 563.526V568H923.847V560.364H925.567V561.661H925.656C925.832 561.234 926.112 560.894 926.496 560.642C926.884 560.39 927.363 560.264 927.933 560.264C928.46 560.264 928.919 560.377 929.31 560.602C929.705 560.828 930.01 561.154 930.225 561.582C930.444 562.009 930.552 562.528 930.548 563.138V568H928.749V563.416C928.749 562.906 928.616 562.506 928.351 562.218C928.089 561.93 927.726 561.786 927.262 561.786C926.947 561.786 926.667 561.855 926.422 561.994C926.18 562.13 925.989 562.327 925.85 562.586C925.714 562.844 925.646 563.158 925.646 563.526ZM938.925 560.364L936.206 568H934.217L931.498 560.364H933.417L935.172 566.036H935.251L937.011 560.364H938.925ZM943.292 568.149C942.526 568.149 941.865 567.99 941.308 567.672C940.755 567.35 940.329 566.896 940.03 566.31C939.732 565.72 939.583 565.025 939.583 564.227C939.583 563.441 939.732 562.752 940.03 562.158C940.332 561.562 940.753 561.098 941.293 560.766C941.833 560.432 942.468 560.264 943.197 560.264C943.668 560.264 944.112 560.34 944.53 560.493C944.951 560.642 945.322 560.874 945.643 561.189C945.968 561.504 946.223 561.905 946.409 562.392C946.595 562.876 946.687 563.453 946.687 564.122V564.674H940.428V563.461H944.962C944.959 563.116 944.884 562.81 944.738 562.541C944.593 562.269 944.389 562.056 944.127 561.9C943.868 561.744 943.567 561.666 943.222 561.666C942.854 561.666 942.531 561.756 942.253 561.935C941.974 562.11 941.757 562.342 941.601 562.631C941.449 562.916 941.371 563.229 941.368 563.57V564.629C941.368 565.073 941.449 565.455 941.611 565.773C941.774 566.088 942.001 566.33 942.292 566.499C942.584 566.664 942.925 566.747 943.317 566.747C943.578 566.747 943.815 566.711 944.028 566.638C944.24 566.562 944.424 566.451 944.579 566.305C944.735 566.159 944.853 565.978 944.932 565.763L946.613 565.952C946.507 566.396 946.305 566.784 946.006 567.115C945.711 567.443 945.333 567.698 944.873 567.881C944.412 568.06 943.885 568.149 943.292 568.149ZM948.21 568V560.364H949.955V561.636H950.034C950.174 561.196 950.412 560.856 950.75 560.617C951.092 560.375 951.481 560.254 951.919 560.254C952.018 560.254 952.129 560.259 952.252 560.269C952.378 560.276 952.482 560.287 952.565 560.304V561.96C952.489 561.933 952.368 561.91 952.202 561.89C952.04 561.867 951.882 561.855 951.73 561.855C951.402 561.855 951.107 561.926 950.845 562.069C950.586 562.208 950.382 562.402 950.233 562.651C950.084 562.899 950.01 563.186 950.01 563.511V568H948.21ZM957.984 560.364V561.756H953.594V560.364H957.984ZM954.678 558.534H956.478V565.703C956.478 565.945 956.514 566.131 956.587 566.26C956.663 566.386 956.763 566.472 956.885 566.518C957.008 566.565 957.144 566.588 957.293 566.588C957.406 566.588 957.508 566.58 957.601 566.563C957.697 566.547 957.77 566.532 957.82 566.518L958.123 567.925C958.027 567.959 957.89 567.995 957.711 568.035C957.535 568.075 957.319 568.098 957.064 568.104C956.614 568.118 956.208 568.05 955.846 567.901C955.485 567.748 955.198 567.513 954.986 567.195C954.777 566.876 954.675 566.479 954.678 566.001V558.534ZM962.788 568.149C962.022 568.149 961.361 567.99 960.804 567.672C960.251 567.35 959.825 566.896 959.526 566.31C959.228 565.72 959.079 565.025 959.079 564.227C959.079 563.441 959.228 562.752 959.526 562.158C959.828 561.562 960.249 561.098 960.789 560.766C961.329 560.432 961.964 560.264 962.693 560.264C963.164 560.264 963.608 560.34 964.026 560.493C964.447 560.642 964.818 560.874 965.139 561.189C965.464 561.504 965.719 561.905 965.905 562.392C966.091 562.876 966.183 563.453 966.183 564.122V564.674H959.924V563.461H964.458C964.455 563.116 964.38 562.81 964.235 562.541C964.089 562.269 963.885 562.056 963.623 561.9C963.365 561.744 963.063 561.666 962.718 561.666C962.35 561.666 962.027 561.756 961.749 561.935C961.47 562.11 961.253 562.342 961.097 562.631C960.945 562.916 960.867 563.229 960.864 563.57V564.629C960.864 565.073 960.945 565.455 961.107 565.773C961.27 566.088 961.497 566.33 961.789 566.499C962.08 566.664 962.422 566.747 962.813 566.747C963.075 566.747 963.311 566.711 963.524 566.638C963.736 566.562 963.92 566.451 964.075 566.305C964.231 566.159 964.349 565.978 964.428 565.763L966.109 565.952C966.003 566.396 965.801 566.784 965.502 567.115C965.207 567.443 964.829 567.698 964.369 567.881C963.908 568.06 963.381 568.149 962.788 568.149ZM967.706 568V560.364H969.451V561.636H969.531C969.67 561.196 969.908 560.856 970.246 560.617C970.588 560.375 970.977 560.254 971.415 560.254C971.514 560.254 971.625 560.259 971.748 560.269C971.874 560.276 971.978 560.287 972.061 560.304V561.96C971.985 561.933 971.864 561.91 971.698 561.89C971.536 561.867 971.378 561.855 971.226 561.855C970.898 561.855 970.603 561.926 970.341 562.069C970.082 562.208 969.879 562.402 969.729 562.651C969.58 562.899 969.506 563.186 969.506 563.511V568H967.706Z" fill="#111111"/>
<path opacity="0.8" d="M377.943 473.545V491H375.83V475.761H375.727L371.466 478.591V476.443L375.83 473.545H377.943ZM388.656 491.239C387.372 491.239 386.278 490.889 385.375 490.19C384.472 489.486 383.781 488.466 383.304 487.131C382.827 485.79 382.588 484.17 382.588 482.273C382.588 480.386 382.827 478.776 383.304 477.44C383.787 476.099 384.48 475.077 385.384 474.372C386.293 473.662 387.384 473.307 388.656 473.307C389.929 473.307 391.017 473.662 391.92 474.372C392.83 475.077 393.523 476.099 394 477.44C394.483 478.776 394.724 480.386 394.724 482.273C394.724 484.17 394.486 485.79 394.009 487.131C393.531 488.466 392.841 489.486 391.938 490.19C391.034 490.889 389.94 491.239 388.656 491.239ZM388.656 489.364C389.929 489.364 390.918 488.75 391.622 487.523C392.327 486.295 392.679 484.545 392.679 482.273C392.679 480.761 392.517 479.474 392.193 478.412C391.875 477.349 391.415 476.54 390.812 475.983C390.216 475.426 389.497 475.148 388.656 475.148C387.395 475.148 386.409 475.77 385.699 477.014C384.989 478.253 384.634 480.006 384.634 482.273C384.634 483.784 384.793 485.068 385.111 486.125C385.429 487.182 385.886 487.986 386.483 488.537C387.085 489.088 387.81 489.364 388.656 489.364Z" fill="#111111"/>
<path opacity="0.8" d="M802.943 473.545V491H800.83V475.761H800.727L796.466 478.591V476.443L800.83 473.545H802.943ZM813.656 491.239C812.372 491.239 811.278 490.889 810.375 490.19C809.472 489.486 808.781 488.466 808.304 487.131C807.827 485.79 807.588 484.17 807.588 482.273C807.588 480.386 807.827 478.776 808.304 477.44C808.787 476.099 809.48 475.077 810.384 474.372C811.293 473.662 812.384 473.307 813.656 473.307C814.929 473.307 816.017 473.662 816.92 474.372C817.83 475.077 818.523 476.099 819 477.44C819.483 478.776 819.724 480.386 819.724 482.273C819.724 484.17 819.486 485.79 819.009 487.131C818.531 488.466 817.841 489.486 816.938 490.19C816.034 490.889 814.94 491.239 813.656 491.239ZM813.656 489.364C814.929 489.364 815.918 488.75 816.622 487.523C817.327 486.295 817.679 484.545 817.679 482.273C817.679 480.761 817.517 479.474 817.193 478.412C816.875 477.349 816.415 476.54 815.812 475.983C815.216 475.426 814.497 475.148 813.656 475.148C812.395 475.148 811.409 475.77 810.699 477.014C809.989 478.253 809.634 480.006 809.634 482.273C809.634 483.784 809.793 485.068 810.111 486.125C810.429 487.182 810.886 487.986 811.483 488.537C812.085 489.088 812.81 489.364 813.656 489.364ZM829.099 473.545V491H826.986V475.761H826.884L822.622 478.591V476.443L826.986 473.545H829.099ZM839.812 491.239C838.528 491.239 837.435 490.889 836.531 490.19C835.628 489.486 834.938 488.466 834.46 487.131C833.983 485.79 833.744 484.17 833.744 482.273C833.744 480.386 833.983 478.776 834.46 477.44C834.943 476.099 835.636 475.077 836.54 474.372C837.449 473.662 838.54 473.307 839.812 473.307C841.085 473.307 842.173 473.662 843.077 474.372C843.986 475.077 844.679 476.099 845.156 477.44C845.639 478.776 845.881 480.386 845.881 482.273C845.881 484.17 845.642 485.79 845.165 487.131C844.688 488.466 843.997 489.486 843.094 490.19C842.19 490.889 841.097 491.239 839.812 491.239ZM839.812 489.364C841.085 489.364 842.074 488.75 842.778 487.523C843.483 486.295 843.835 484.545 843.835 482.273C843.835 480.761 843.673 479.474 843.349 478.412C843.031 477.349 842.571 476.54 841.969 475.983C841.372 475.426 840.653 475.148 839.812 475.148C838.551 475.148 837.565 475.77 836.855 477.014C836.145 478.253 835.79 480.006 835.79 482.273C835.79 483.784 835.949 485.068 836.267 486.125C836.585 487.182 837.043 487.986 837.639 488.537C838.241 489.088 838.966 489.364 839.812 489.364Z" fill="#111111"/>
</svg>
