<svg width="1200" height="932" viewBox="0 0 1200 932" fill="none" xmlns="http://www.w3.org/2000/svg">
<g clip-path="url(#clip0_1_2)">
<rect width="1200" height="932" fill="white"/>
<rect width="1200" height="932" fill="#111111"/>
<path fill-rule="evenodd" clip-rule="evenodd" d="M62.6667 48L59.9444 45.3333H48V48H61.3333H62.6667ZM61.3333 42.9609V18.6667V16H64V18.6667V45.3333V45.5732L61.3333 42.9609ZM64 47.9861L63.9864 48H64V47.9861ZM36.5329 18.6667L33.8107 16H34.6667H48V18.6667H36.5329ZM32 17.9592L34.6667 20.5714V45.3333V48H32V45.3333V18.6667V17.9592Z" fill="#91D7E3"/>
<path fill-rule="evenodd" clip-rule="evenodd" d="M54.9118 36.0309C55.6036 34.8473 56 33.4699 56 32C56 27.5817 52.4183 24 48 24C46.4711 24 45.0423 24.4289 43.8275 25.1729L45.8245 27.1291C46.4888 26.8319 47.2251 26.6667 48 26.6667C50.9455 26.6667 53.3333 29.0545 53.3333 32C53.3333 32.7359 53.1843 33.437 52.9148 34.0747L54.9118 36.0309ZM43.7272 28.8076C43.0612 29.6977 42.6667 30.8028 42.6667 32C42.6667 34.9455 45.0545 37.3333 48 37.3333C49.2367 37.3333 50.3751 36.9124 51.2797 36.206L53.196 38.0831C51.7981 39.2783 49.9833 40 48 40C43.5817 40 40 36.4183 40 32C40 30.076 40.6792 28.3105 41.811 26.9305L43.7272 28.8076Z" fill="#ED8796"/>
<path fill-rule="evenodd" clip-rule="evenodd" d="M64 45.5211V45.3333V18.6667V16H61.3333V18.6667V42.9089L64 45.5211ZM59.9976 45.3333H48V48H61.3333H62.7198L59.9976 45.3333Z" fill="#EED49F"/>
<path d="M434.625 289.266L433.594 291.312C432.208 290.24 430.708 289.703 429.094 289.703C427.479 289.703 426.146 290.156 425.094 291.062C423.031 292.823 422 295.573 422 299.312C422 301.115 422.266 302.74 422.797 304.188C423.328 305.635 424.115 306.797 425.156 307.672C426.208 308.536 427.432 308.969 428.828 308.969C430.651 308.969 432.25 308.406 433.625 307.281L434.641 309.484C433.182 310.755 431.125 311.391 428.469 311.391C426.562 311.391 424.88 310.87 423.422 309.828C421.974 308.776 420.865 307.339 420.094 305.516C419.323 303.682 418.938 301.74 418.938 299.688C418.938 297.625 419.182 295.844 419.672 294.344C420.161 292.833 420.828 291.568 421.672 290.547C422.526 289.526 423.536 288.734 424.703 288.172C425.87 287.599 427.125 287.312 428.469 287.312C431.062 287.312 433.115 287.964 434.625 289.266ZM449.484 307.172V302.797L447.156 303.125C445.531 303.354 444.406 303.583 443.781 303.812C442.385 304.344 441.688 305.234 441.688 306.484C441.688 307.349 441.938 308.036 442.438 308.547C442.938 309.057 443.625 309.312 444.5 309.312C446.427 309.312 448.089 308.599 449.484 307.172ZM449.484 299.188C449.484 296.74 448.448 295.516 446.375 295.516C445.396 295.516 444.312 295.63 443.125 295.859C441.948 296.089 441.12 296.307 440.641 296.516L439.969 294.422C442.125 293.703 444.151 293.344 446.047 293.344C447.943 293.344 449.464 293.776 450.609 294.641C451.755 295.505 452.328 296.839 452.328 298.641V311H449.969L449.594 309.016C448.927 309.693 448.068 310.26 447.016 310.719C445.974 311.167 444.953 311.391 443.953 311.391C442.505 311.391 441.302 310.958 440.344 310.094C439.385 309.219 438.906 307.99 438.906 306.406C438.906 304.812 439.531 303.646 440.781 302.906C441.625 302.385 442.521 302.031 443.469 301.844C444.427 301.646 445.672 301.453 447.203 301.266L449.484 301V299.188ZM471.672 311H469.406C467.396 311 465.958 310.792 465.094 310.375C464.594 310.135 464.198 309.859 463.906 309.547C463.135 308.745 462.734 306.974 462.703 304.234V288.734H457.578V286.547H465.547V304.094C465.547 306.167 465.734 307.438 466.109 307.906C466.495 308.375 466.974 308.646 467.547 308.719C468.12 308.781 468.703 308.812 469.297 308.812H471.812L471.672 311ZM490.312 309.875C489.219 310.885 487.661 311.391 485.641 311.391C484.349 311.391 483.172 311.146 482.109 310.656C481.047 310.156 480.177 309.49 479.5 308.656C478.073 306.906 477.359 304.797 477.359 302.328C477.359 300.734 477.682 299.26 478.328 297.906C478.984 296.552 479.948 295.453 481.219 294.609C482.49 293.766 484.057 293.344 485.922 293.344C487.786 293.344 489.234 293.839 490.266 294.828L489.547 296.734C488.349 295.932 486.995 295.531 485.484 295.531C483.974 295.531 482.719 296.177 481.719 297.469C480.729 298.76 480.234 300.406 480.234 302.406C480.234 304.396 480.729 306.026 481.719 307.297C482.719 308.568 483.99 309.203 485.531 309.203C487.083 309.203 488.448 308.786 489.625 307.953L490.312 309.875ZM510.109 305.438C510.109 309.406 507.901 311.391 503.484 311.391C499.068 311.391 496.859 309.406 496.859 305.438V293.859H499.703V305.688C499.703 306.906 500.005 307.797 500.609 308.359C501.214 308.922 502.172 309.203 503.484 309.203C504.797 309.203 505.755 308.922 506.359 308.359C506.964 307.797 507.266 306.906 507.266 305.688V293.859H510.109V305.438ZM529.328 311H527.062C525.052 311 523.615 310.792 522.75 310.375C522.25 310.135 521.854 309.859 521.562 309.547C520.792 308.745 520.391 306.974 520.359 304.234V288.734H515.234V286.547H523.203V304.094C523.203 306.167 523.391 307.438 523.766 307.906C524.151 308.375 524.63 308.646 525.203 308.719C525.776 308.781 526.359 308.812 526.953 308.812H529.469L529.328 311ZM545.578 307.172V302.797L543.25 303.125C541.625 303.354 540.5 303.583 539.875 303.812C538.479 304.344 537.781 305.234 537.781 306.484C537.781 307.349 538.031 308.036 538.531 308.547C539.031 309.057 539.719 309.312 540.594 309.312C542.521 309.312 544.182 308.599 545.578 307.172ZM545.578 299.188C545.578 296.74 544.542 295.516 542.469 295.516C541.49 295.516 540.406 295.63 539.219 295.859C538.042 296.089 537.214 296.307 536.734 296.516L536.062 294.422C538.219 293.703 540.245 293.344 542.141 293.344C544.036 293.344 545.557 293.776 546.703 294.641C547.849 295.505 548.422 296.839 548.422 298.641V311H546.062L545.688 309.016C545.021 309.693 544.161 310.26 543.109 310.719C542.068 311.167 541.047 311.391 540.047 311.391C538.599 311.391 537.396 310.958 536.438 310.094C535.479 309.219 535 307.99 535 306.406C535 304.812 535.625 303.646 536.875 302.906C537.719 302.385 538.615 302.031 539.562 301.844C540.521 301.646 541.766 301.453 543.297 301.266L545.578 301V299.188ZM565.25 302.328C565.25 299.661 564.854 297.865 564.062 296.938C563.271 296 562.146 295.531 560.688 295.531C558.667 295.531 557.359 296.531 556.766 298.531C556.443 299.625 556.281 300.943 556.281 302.484C556.281 306.964 557.75 309.203 560.688 309.203C563.729 309.203 565.25 306.911 565.25 302.328ZM565.25 296.219V286.859L568.094 286.547V311H565.25V308.344C564.094 310.375 562.458 311.391 560.344 311.391C557.927 311.391 556.167 310.526 555.062 308.797C553.969 307.068 553.422 304.896 553.422 302.281C553.422 299.135 554.224 296.74 555.828 295.094C556.953 293.927 558.464 293.344 560.359 293.344C561.651 293.344 562.698 293.609 563.5 294.141C564.312 294.672 564.896 295.365 565.25 296.219ZM580.312 309.203C582.302 309.203 583.656 308.214 584.375 306.234C584.76 305.172 584.953 304.083 584.953 302.969C584.953 301.844 584.911 300.969 584.828 300.344C584.641 298.927 584.188 297.771 583.469 296.875C582.76 295.979 581.708 295.531 580.312 295.531C578.375 295.531 577.052 296.542 576.344 298.562C575.969 299.646 575.781 300.781 575.781 301.969C575.781 304.073 576.109 305.807 576.766 307.172C577.422 308.526 578.604 309.203 580.312 309.203ZM585.938 295.844C587.177 297.51 587.797 299.688 587.797 302.375C587.797 305.062 587.125 307.24 585.781 308.906C584.438 310.562 582.615 311.391 580.312 311.391C579.083 311.391 577.99 311.156 577.031 310.688C576.073 310.219 575.297 309.573 574.703 308.75C573.505 307.094 572.906 304.938 572.906 302.281C572.906 299.625 573.568 297.474 574.891 295.828C576.214 294.172 578.073 293.344 580.469 293.344C582.875 293.344 584.698 294.177 585.938 295.844ZM598.453 311H595.609V293.859H597.938L598.172 297.031C598.87 295.823 599.786 294.906 600.922 294.281C602.057 293.656 603.344 293.344 604.781 293.344H606.156V295.984H604.375C602.552 295.984 601.109 296.443 600.047 297.359C598.984 298.266 598.453 299.635 598.453 301.469V311ZM622.453 307.172V302.797L620.125 303.125C618.5 303.354 617.375 303.583 616.75 303.812C615.354 304.344 614.656 305.234 614.656 306.484C614.656 307.349 614.906 308.036 615.406 308.547C615.906 309.057 616.594 309.312 617.469 309.312C619.396 309.312 621.057 308.599 622.453 307.172ZM622.453 299.188C622.453 296.74 621.417 295.516 619.344 295.516C618.365 295.516 617.281 295.63 616.094 295.859C614.917 296.089 614.089 296.307 613.609 296.516L612.938 294.422C615.094 293.703 617.12 293.344 619.016 293.344C620.911 293.344 622.432 293.776 623.578 294.641C624.724 295.505 625.297 296.839 625.297 298.641V311H622.938L622.562 309.016C621.896 309.693 621.036 310.26 619.984 310.719C618.943 311.167 617.922 311.391 616.922 311.391C615.474 311.391 614.271 310.958 613.312 310.094C612.354 309.219 611.875 307.99 611.875 306.406C611.875 304.812 612.5 303.646 613.75 302.906C614.594 302.385 615.49 302.031 616.438 301.844C617.396 301.646 618.641 301.453 620.172 301.266L622.453 301V299.188ZM655.297 297.312C657.339 297.312 658.755 297.016 659.547 296.422C660.339 295.818 660.734 295 660.734 293.969C660.734 292.427 660.312 291.396 659.469 290.875C658.875 290.49 658.13 290.245 657.234 290.141C656.339 290.036 655.198 289.984 653.812 289.984H653V297.312H655.297ZM656 299.828H653V308.719H655.516C657.693 308.719 659.302 308.396 660.344 307.75C661.396 307.104 661.922 305.922 661.922 304.203C661.922 302.474 661.406 301.312 660.375 300.719C659.344 300.125 657.885 299.828 656 299.828ZM665 304.234C665 308.745 661.896 311 655.688 311H650.078V287.703H654.656C658.156 287.703 660.552 288.203 661.844 289.203C663.146 290.193 663.797 291.599 663.797 293.422C663.797 294.755 663.422 295.823 662.672 296.625C661.922 297.427 660.906 298 659.625 298.344C661.167 298.573 662.448 299.229 663.469 300.312C664.49 301.385 665 302.693 665 304.234ZM675.25 289.344V287.797C675.25 287.422 675.458 287.094 675.875 286.812C676.302 286.521 676.724 286.375 677.141 286.375C677.557 286.375 677.974 286.521 678.391 286.812C678.818 287.094 679.031 287.422 679.031 287.797V289.344C679.031 289.719 678.818 290.052 678.391 290.344C677.974 290.625 677.557 290.766 677.141 290.766C676.724 290.766 676.302 290.625 675.875 290.344C675.458 290.052 675.25 289.719 675.25 289.344ZM670.828 296.047V293.859H678.562V308.812H683.469V311H670.281V308.812H675.719V296.047H670.828ZM697.203 293.344C700.755 293.344 702.531 295.594 702.531 300.094V311H699.688V300.438C699.688 299.229 699.625 298.365 699.5 297.844C699.375 297.323 699.188 296.896 698.938 296.562C698.406 295.875 697.536 295.531 696.328 295.531C695.109 295.531 694.078 295.885 693.234 296.594C692.391 297.302 691.969 298.24 691.969 299.406V311H689.125V293.859H691.734L691.891 295.719C693.026 294.135 694.797 293.344 697.203 293.344ZM718.547 307.172V302.797L716.219 303.125C714.594 303.354 713.469 303.583 712.844 303.812C711.448 304.344 710.75 305.234 710.75 306.484C710.75 307.349 711 308.036 711.5 308.547C712 309.057 712.688 309.312 713.562 309.312C715.49 309.312 717.151 308.599 718.547 307.172ZM718.547 299.188C718.547 296.74 717.51 295.516 715.438 295.516C714.458 295.516 713.375 295.63 712.188 295.859C711.01 296.089 710.182 296.307 709.703 296.516L709.031 294.422C711.188 293.703 713.214 293.344 715.109 293.344C717.005 293.344 718.526 293.776 719.672 294.641C720.818 295.505 721.391 296.839 721.391 298.641V311H719.031L718.656 309.016C717.99 309.693 717.13 310.26 716.078 310.719C715.036 311.167 714.016 311.391 713.016 311.391C711.568 311.391 710.365 310.958 709.406 310.094C708.448 309.219 707.969 307.99 707.969 306.406C707.969 304.812 708.594 303.646 709.844 302.906C710.688 302.385 711.583 302.031 712.531 301.844C713.49 301.646 714.734 301.453 716.266 301.266L718.547 301V299.188ZM714.406 291.438L718.484 284.609H722.109L716.625 291.438H714.406ZM732.984 311H730.141V293.859H732.469L732.703 297.031C733.401 295.823 734.318 294.906 735.453 294.281C736.589 293.656 737.875 293.344 739.312 293.344H740.688V295.984H738.906C737.083 295.984 735.641 296.443 734.578 297.359C733.516 298.266 732.984 299.635 732.984 301.469V311ZM752.125 289.344V287.797C752.125 287.422 752.333 287.094 752.75 286.812C753.177 286.521 753.599 286.375 754.016 286.375C754.432 286.375 754.849 286.521 755.266 286.812C755.693 287.094 755.906 287.422 755.906 287.797V289.344C755.906 289.719 755.693 290.052 755.266 290.344C754.849 290.625 754.432 290.766 754.016 290.766C753.599 290.766 753.177 290.625 752.75 290.344C752.333 290.052 752.125 289.719 752.125 289.344ZM747.703 296.047V293.859H755.438V308.812H760.344V311H747.156V308.812H752.594V296.047H747.703ZM776.203 307.172V302.797L773.875 303.125C772.25 303.354 771.125 303.583 770.5 303.812C769.104 304.344 768.406 305.234 768.406 306.484C768.406 307.349 768.656 308.036 769.156 308.547C769.656 309.057 770.344 309.312 771.219 309.312C773.146 309.312 774.807 308.599 776.203 307.172ZM776.203 299.188C776.203 296.74 775.167 295.516 773.094 295.516C772.115 295.516 771.031 295.63 769.844 295.859C768.667 296.089 767.839 296.307 767.359 296.516L766.688 294.422C768.844 293.703 770.87 293.344 772.766 293.344C774.661 293.344 776.182 293.776 777.328 294.641C778.474 295.505 779.047 296.839 779.047 298.641V311H776.688L776.312 309.016C775.646 309.693 774.786 310.26 773.734 310.719C772.693 311.167 771.672 311.391 770.672 311.391C769.224 311.391 768.021 310.958 767.062 310.094C766.104 309.219 765.625 307.99 765.625 306.406C765.625 304.812 766.25 303.646 767.5 302.906C768.344 302.385 769.24 302.031 770.188 301.844C771.146 301.646 772.391 301.453 773.922 301.266L776.203 301V299.188Z" fill="#EED49F"/>
<path d="M440.408 362.192C439.533 362.192 438.749 361.979 438.056 361.552C437.373 361.115 436.829 360.491 436.424 359.68C436.029 358.869 435.832 357.893 435.832 356.752C435.832 355.621 436.035 354.651 436.44 353.84C436.845 353.029 437.4 352.405 438.104 351.968C438.808 351.531 439.603 351.312 440.488 351.312C441.128 351.312 441.693 351.445 442.184 351.712C442.675 351.968 443.069 352.267 443.368 352.608L442.648 353.472C442.371 353.173 442.056 352.933 441.704 352.752C441.352 352.571 440.952 352.48 440.504 352.48C439.843 352.48 439.261 352.656 438.76 353.008C438.269 353.349 437.885 353.835 437.608 354.464C437.341 355.093 437.208 355.845 437.208 356.72C437.208 357.595 437.341 358.357 437.608 359.008C437.875 359.648 438.248 360.144 438.728 360.496C439.219 360.848 439.795 361.024 440.456 361.024C440.957 361.024 441.405 360.917 441.8 360.704C442.195 360.491 442.557 360.203 442.888 359.84L443.624 360.672C443.208 361.152 442.739 361.525 442.216 361.792C441.693 362.059 441.091 362.192 440.408 362.192ZM448.477 362.192C447.847 362.192 447.255 362.032 446.701 361.712C446.157 361.392 445.714 360.928 445.373 360.32C445.042 359.712 444.877 358.981 444.877 358.128C444.877 357.253 445.042 356.512 445.373 355.904C445.714 355.296 446.157 354.832 446.701 354.512C447.255 354.192 447.847 354.032 448.477 354.032C449.117 354.032 449.709 354.192 450.253 354.512C450.797 354.832 451.234 355.296 451.565 355.904C451.906 356.512 452.077 357.253 452.077 358.128C452.077 358.981 451.906 359.712 451.565 360.32C451.234 360.928 450.797 361.392 450.253 361.712C449.709 362.032 449.117 362.192 448.477 362.192ZM448.477 361.104C449.149 361.104 449.687 360.832 450.093 360.288C450.509 359.733 450.717 359.013 450.717 358.128C450.717 357.232 450.509 356.507 450.093 355.952C449.687 355.397 449.149 355.12 448.477 355.12C447.815 355.12 447.277 355.397 446.861 355.952C446.445 356.507 446.237 357.232 446.237 358.128C446.237 359.013 446.445 359.733 446.861 360.288C447.277 360.832 447.815 361.104 448.477 361.104ZM454.125 362V354.224H455.213L455.325 355.344H455.373C455.746 354.971 456.141 354.661 456.557 354.416C456.973 354.16 457.447 354.032 457.981 354.032C458.802 354.032 459.399 354.293 459.773 354.816C460.157 355.328 460.349 356.08 460.349 357.072V362H459.037V357.248C459.037 356.523 458.919 355.995 458.685 355.664C458.45 355.333 458.077 355.168 457.565 355.168C457.17 355.168 456.813 355.269 456.493 355.472C456.183 355.675 455.831 355.973 455.437 356.368V362H454.125ZM464.555 362L461.755 354.224H463.115L464.587 358.64C464.704 359.024 464.821 359.408 464.939 359.792C465.067 360.176 465.189 360.555 465.307 360.928H465.371C465.488 360.555 465.605 360.176 465.723 359.792C465.851 359.408 465.968 359.024 466.075 358.64L467.547 354.224H468.843L466.091 362H464.555ZM473.433 362.192C472.739 362.192 472.11 362.032 471.545 361.712C470.979 361.381 470.531 360.912 470.201 360.304C469.87 359.696 469.705 358.971 469.705 358.128C469.705 357.275 469.87 356.544 470.201 355.936C470.542 355.328 470.979 354.859 471.513 354.528C472.046 354.197 472.606 354.032 473.193 354.032C474.185 354.032 474.947 354.363 475.481 355.024C476.025 355.685 476.297 356.571 476.297 357.68C476.297 357.819 476.291 357.957 476.281 358.096C476.281 358.224 476.27 358.336 476.249 358.432H471.001C471.054 359.253 471.31 359.909 471.769 360.4C472.238 360.891 472.846 361.136 473.593 361.136C473.966 361.136 474.307 361.083 474.617 360.976C474.937 360.859 475.241 360.709 475.529 360.528L475.993 361.392C475.662 361.605 475.283 361.792 474.857 361.952C474.441 362.112 473.966 362.192 473.433 362.192ZM470.985 357.488H475.145C475.145 356.699 474.974 356.101 474.633 355.696C474.302 355.28 473.833 355.072 473.225 355.072C472.681 355.072 472.19 355.285 471.753 355.712C471.326 356.128 471.07 356.72 470.985 357.488ZM478.218 362V354.224H479.306L479.418 355.632H479.466C479.733 355.141 480.058 354.752 480.442 354.464C480.826 354.176 481.237 354.032 481.674 354.032C481.984 354.032 482.261 354.085 482.506 354.192L482.25 355.344C482.122 355.301 482.005 355.269 481.898 355.248C481.792 355.227 481.658 355.216 481.498 355.216C481.168 355.216 480.821 355.349 480.458 355.616C480.106 355.883 479.797 356.347 479.53 357.008V362H478.218ZM485.735 362.192C485.18 362.192 484.652 362.091 484.151 361.888C483.649 361.675 483.212 361.419 482.839 361.12L483.495 360.24C483.836 360.507 484.188 360.731 484.551 360.912C484.913 361.083 485.324 361.168 485.783 361.168C486.295 361.168 486.679 361.051 486.935 360.816C487.191 360.571 487.319 360.283 487.319 359.952C487.319 359.685 487.228 359.461 487.047 359.28C486.876 359.099 486.652 358.949 486.375 358.832C486.108 358.704 485.831 358.587 485.543 358.48C485.18 358.341 484.823 358.187 484.471 358.016C484.119 357.835 483.831 357.605 483.607 357.328C483.383 357.04 483.271 356.677 483.271 356.24C483.271 355.611 483.505 355.088 483.975 354.672C484.455 354.245 485.116 354.032 485.959 354.032C486.439 354.032 486.887 354.117 487.303 354.288C487.719 354.459 488.076 354.667 488.375 354.912L487.735 355.744C487.468 355.541 487.191 355.376 486.903 355.248C486.615 355.12 486.3 355.056 485.959 355.056C485.468 355.056 485.105 355.168 484.871 355.392C484.647 355.616 484.535 355.877 484.535 356.176C484.535 356.421 484.615 356.624 484.775 356.784C484.935 356.933 485.143 357.067 485.399 357.184C485.655 357.291 485.927 357.403 486.215 357.52C486.588 357.659 486.956 357.819 487.319 358C487.681 358.171 487.98 358.405 488.215 358.704C488.46 358.992 488.583 359.381 488.583 359.872C488.583 360.288 488.471 360.672 488.247 361.024C488.033 361.376 487.713 361.659 487.287 361.872C486.871 362.085 486.353 362.192 485.735 362.192ZM493.43 362.192C492.8 362.192 492.208 362.032 491.654 361.712C491.11 361.392 490.667 360.928 490.326 360.32C489.995 359.712 489.83 358.981 489.83 358.128C489.83 357.253 489.995 356.512 490.326 355.904C490.667 355.296 491.11 354.832 491.654 354.512C492.208 354.192 492.8 354.032 493.43 354.032C494.07 354.032 494.662 354.192 495.206 354.512C495.75 354.832 496.187 355.296 496.518 355.904C496.859 356.512 497.03 357.253 497.03 358.128C497.03 358.981 496.859 359.712 496.518 360.32C496.187 360.928 495.75 361.392 495.206 361.712C494.662 362.032 494.07 362.192 493.43 362.192ZM493.43 361.104C494.102 361.104 494.64 360.832 495.046 360.288C495.462 359.733 495.67 359.013 495.67 358.128C495.67 357.232 495.462 356.507 495.046 355.952C494.64 355.397 494.102 355.12 493.43 355.12C492.768 355.12 492.23 355.397 491.814 355.952C491.398 356.507 491.19 357.232 491.19 358.128C491.19 359.013 491.398 359.733 491.814 360.288C492.23 360.832 492.768 361.104 493.43 361.104ZM499.078 362V354.224H500.166L500.278 355.632H500.326C500.592 355.141 500.918 354.752 501.302 354.464C501.686 354.176 502.096 354.032 502.534 354.032C502.843 354.032 503.12 354.085 503.366 354.192L503.11 355.344C502.982 355.301 502.864 355.269 502.758 355.248C502.651 355.227 502.518 355.216 502.358 355.216C502.027 355.216 501.68 355.349 501.318 355.616C500.966 355.883 500.656 356.347 500.39 357.008V362H499.078ZM510.484 362.192C509.513 362.192 508.734 361.84 508.148 361.136C507.561 360.421 507.268 359.419 507.268 358.128C507.268 357.285 507.422 356.56 507.732 355.952C508.052 355.333 508.468 354.859 508.98 354.528C509.502 354.197 510.057 354.032 510.644 354.032C511.092 354.032 511.481 354.112 511.812 354.272C512.142 354.432 512.478 354.651 512.82 354.928L512.756 353.6V350.608H514.084V362H512.996L512.884 361.088H512.836C512.537 361.387 512.185 361.648 511.78 361.872C511.374 362.085 510.942 362.192 510.484 362.192ZM510.772 361.088C511.454 361.088 512.116 360.731 512.756 360.016V355.952C512.425 355.653 512.105 355.445 511.796 355.328C511.497 355.2 511.188 355.136 510.868 355.136C510.452 355.136 510.073 355.264 509.732 355.52C509.401 355.765 509.134 356.112 508.932 356.56C508.729 356.997 508.628 357.515 508.628 358.112C508.628 359.04 508.814 359.771 509.188 360.304C509.561 360.827 510.089 361.088 510.772 361.088ZM519.855 362.192C519.161 362.192 518.532 362.032 517.967 361.712C517.401 361.381 516.953 360.912 516.623 360.304C516.292 359.696 516.127 358.971 516.127 358.128C516.127 357.275 516.292 356.544 516.623 355.936C516.964 355.328 517.401 354.859 517.935 354.528C518.468 354.197 519.028 354.032 519.615 354.032C520.607 354.032 521.369 354.363 521.903 355.024C522.447 355.685 522.719 356.571 522.719 357.68C522.719 357.819 522.713 357.957 522.703 358.096C522.703 358.224 522.692 358.336 522.671 358.432H517.423C517.476 359.253 517.732 359.909 518.191 360.4C518.66 360.891 519.268 361.136 520.015 361.136C520.388 361.136 520.729 361.083 521.039 360.976C521.359 360.859 521.663 360.709 521.951 360.528L522.415 361.392C522.084 361.605 521.705 361.792 521.279 361.952C520.863 362.112 520.388 362.192 519.855 362.192ZM517.407 357.488H521.567C521.567 356.699 521.396 356.101 521.055 355.696C520.724 355.28 520.255 355.072 519.647 355.072C519.103 355.072 518.612 355.285 518.175 355.712C517.748 356.128 517.492 356.72 517.407 357.488ZM527.843 362V354.224H528.931L529.043 355.344H529.091C529.465 354.971 529.859 354.661 530.275 354.416C530.691 354.16 531.166 354.032 531.699 354.032C532.521 354.032 533.118 354.293 533.491 354.816C533.875 355.328 534.067 356.08 534.067 357.072V362H532.755V357.248C532.755 356.523 532.638 355.995 532.403 355.664C532.169 355.333 531.795 355.168 531.283 355.168C530.889 355.168 530.531 355.269 530.211 355.472C529.902 355.675 529.55 355.973 529.155 356.368V362H527.843ZM538.865 362.192C538.044 362.192 537.441 361.936 537.057 361.424C536.673 360.901 536.481 360.144 536.481 359.152V354.224H537.809V358.976C537.809 359.701 537.921 360.229 538.145 360.56C538.38 360.891 538.753 361.056 539.265 361.056C539.671 361.056 540.028 360.955 540.337 360.752C540.657 360.539 540.999 360.203 541.361 359.744V354.224H542.673V362H541.585L541.473 360.784H541.425C541.063 361.211 540.679 361.552 540.273 361.808C539.868 362.064 539.399 362.192 538.865 362.192ZM539.393 352.832L538.721 352.176L540.977 349.504L541.905 350.384L539.393 352.832ZM545.296 362V354.224H546.384L546.496 355.344H546.544C546.886 354.971 547.259 354.661 547.664 354.416C548.07 354.16 548.502 354.032 548.96 354.032C549.558 354.032 550.022 354.165 550.352 354.432C550.694 354.688 550.944 355.051 551.104 355.52C551.51 355.083 551.92 354.725 552.336 354.448C552.752 354.171 553.195 354.032 553.664 354.032C554.464 354.032 555.056 354.293 555.44 354.816C555.835 355.328 556.032 356.08 556.032 357.072V362H554.72V357.248C554.72 356.523 554.603 355.995 554.368 355.664C554.134 355.333 553.771 355.168 553.28 355.168C552.704 355.168 552.054 355.568 551.328 356.368V362H550.016V357.248C550.016 356.523 549.899 355.995 549.664 355.664C549.43 355.333 549.062 355.168 548.56 355.168C547.984 355.168 547.334 355.568 546.608 356.368V362H545.296ZM561.714 362.192C561.021 362.192 560.391 362.032 559.826 361.712C559.261 361.381 558.813 360.912 558.482 360.304C558.151 359.696 557.986 358.971 557.986 358.128C557.986 357.275 558.151 356.544 558.482 355.936C558.823 355.328 559.261 354.859 559.794 354.528C560.327 354.197 560.887 354.032 561.474 354.032C562.466 354.032 563.229 354.363 563.762 355.024C564.306 355.685 564.578 356.571 564.578 357.68C564.578 357.819 564.573 357.957 564.562 358.096C564.562 358.224 564.551 358.336 564.53 358.432H559.282C559.335 359.253 559.591 359.909 560.05 360.4C560.519 360.891 561.127 361.136 561.874 361.136C562.247 361.136 562.589 361.083 562.898 360.976C563.218 360.859 563.522 360.709 563.81 360.528L564.274 361.392C563.943 361.605 563.565 361.792 563.138 361.952C562.722 362.112 562.247 362.192 561.714 362.192ZM559.266 357.488H563.426C563.426 356.699 563.255 356.101 562.914 355.696C562.583 355.28 562.114 355.072 561.506 355.072C560.962 355.072 560.471 355.285 560.034 355.712C559.607 356.128 559.351 356.72 559.266 357.488ZM566.5 362V354.224H567.588L567.7 355.632H567.748C568.014 355.141 568.34 354.752 568.724 354.464C569.108 354.176 569.518 354.032 569.956 354.032C570.265 354.032 570.542 354.085 570.788 354.192L570.532 355.344C570.404 355.301 570.286 355.269 570.18 355.248C570.073 355.227 569.94 355.216 569.78 355.216C569.449 355.216 569.102 355.349 568.74 355.616C568.388 355.883 568.078 356.347 567.812 357.008V362H566.5ZM574.914 362.192C574.285 362.192 573.693 362.032 573.138 361.712C572.594 361.392 572.151 360.928 571.81 360.32C571.479 359.712 571.314 358.981 571.314 358.128C571.314 357.253 571.479 356.512 571.81 355.904C572.151 355.296 572.594 354.832 573.138 354.512C573.693 354.192 574.285 354.032 574.914 354.032C575.554 354.032 576.146 354.192 576.69 354.512C577.234 354.832 577.671 355.296 578.002 355.904C578.343 356.512 578.514 357.253 578.514 358.128C578.514 358.981 578.343 359.712 578.002 360.32C577.671 360.928 577.234 361.392 576.69 361.712C576.146 362.032 575.554 362.192 574.914 362.192ZM574.914 361.104C575.586 361.104 576.125 360.832 576.53 360.288C576.946 359.733 577.154 359.013 577.154 358.128C577.154 357.232 576.946 356.507 576.53 355.952C576.125 355.397 575.586 355.12 574.914 355.12C574.253 355.12 573.714 355.397 573.298 355.952C572.882 356.507 572.674 357.232 572.674 358.128C572.674 359.013 572.882 359.733 573.298 360.288C573.714 360.832 574.253 361.104 574.914 361.104ZM582.594 362.192C582.039 362.192 581.511 362.091 581.01 361.888C580.509 361.675 580.071 361.419 579.698 361.12L580.354 360.24C580.695 360.507 581.047 360.731 581.41 360.912C581.773 361.083 582.183 361.168 582.642 361.168C583.154 361.168 583.538 361.051 583.794 360.816C584.05 360.571 584.178 360.283 584.178 359.952C584.178 359.685 584.087 359.461 583.906 359.28C583.735 359.099 583.511 358.949 583.234 358.832C582.967 358.704 582.69 358.587 582.402 358.48C582.039 358.341 581.682 358.187 581.33 358.016C580.978 357.835 580.69 357.605 580.466 357.328C580.242 357.04 580.13 356.677 580.13 356.24C580.13 355.611 580.365 355.088 580.834 354.672C581.314 354.245 581.975 354.032 582.818 354.032C583.298 354.032 583.746 354.117 584.162 354.288C584.578 354.459 584.935 354.667 585.234 354.912L584.594 355.744C584.327 355.541 584.05 355.376 583.762 355.248C583.474 355.12 583.159 355.056 582.818 355.056C582.327 355.056 581.965 355.168 581.73 355.392C581.506 355.616 581.394 355.877 581.394 356.176C581.394 356.421 581.474 356.624 581.634 356.784C581.794 356.933 582.002 357.067 582.258 357.184C582.514 357.291 582.786 357.403 583.074 357.52C583.447 357.659 583.815 357.819 584.178 358C584.541 358.171 584.839 358.405 585.074 358.704C585.319 358.992 585.442 359.381 585.442 359.872C585.442 360.288 585.33 360.672 585.106 361.024C584.893 361.376 584.573 361.659 584.146 361.872C583.73 362.085 583.213 362.192 582.594 362.192ZM593.908 362.192C593.546 362.192 593.167 362.107 592.772 361.936C592.388 361.755 592.026 361.509 591.684 361.2H591.636L591.524 362H590.468V350.608H591.78V353.712L591.748 355.12C592.1 354.811 592.484 354.555 592.9 354.352C593.327 354.139 593.754 354.032 594.18 354.032C595.194 354.032 595.962 354.389 596.484 355.104C597.007 355.819 597.268 356.779 597.268 357.984C597.268 358.869 597.108 359.627 596.788 360.256C596.479 360.885 596.068 361.365 595.556 361.696C595.055 362.027 594.506 362.192 593.908 362.192ZM593.684 361.088C594.324 361.088 594.852 360.816 595.268 360.272C595.695 359.717 595.908 358.96 595.908 358C595.908 357.147 595.748 356.459 595.428 355.936C595.119 355.403 594.596 355.136 593.86 355.136C593.53 355.136 593.194 355.227 592.852 355.408C592.511 355.589 592.154 355.851 591.78 356.192V360.272C592.122 360.571 592.458 360.784 592.788 360.912C593.13 361.029 593.428 361.088 593.684 361.088ZM599.312 362V354.224H600.624V362H599.312ZM599.984 352.624C599.728 352.624 599.515 352.549 599.344 352.4C599.184 352.24 599.104 352.027 599.104 351.76C599.104 351.504 599.184 351.296 599.344 351.136C599.515 350.976 599.728 350.896 599.984 350.896C600.24 350.896 600.448 350.976 600.608 351.136C600.779 351.296 600.864 351.504 600.864 351.76C600.864 352.027 600.779 352.24 600.608 352.4C600.448 352.549 600.24 352.624 599.984 352.624ZM603.25 362V354.224H604.338L604.45 355.344H604.498C604.871 354.971 605.266 354.661 605.682 354.416C606.098 354.16 606.572 354.032 607.106 354.032C607.927 354.032 608.524 354.293 608.898 354.816C609.282 355.328 609.474 356.08 609.474 357.072V362H608.162V357.248C608.162 356.523 608.044 355.995 607.81 355.664C607.575 355.333 607.202 355.168 606.69 355.168C606.295 355.168 605.938 355.269 605.618 355.472C605.308 355.675 604.956 355.973 604.562 356.368V362H603.25ZM613.792 362.192C613.141 362.192 612.597 362 612.16 361.616C611.733 361.221 611.52 360.677 611.52 359.984C611.52 359.131 611.898 358.48 612.656 358.032C613.424 357.573 614.634 357.253 616.288 357.072C616.288 356.741 616.24 356.427 616.144 356.128C616.058 355.829 615.898 355.589 615.664 355.408C615.44 355.216 615.114 355.12 614.688 355.12C614.24 355.12 613.818 355.205 613.424 355.376C613.029 355.547 612.677 355.739 612.368 355.952L611.856 355.04C612.218 354.805 612.661 354.581 613.184 354.368C613.717 354.144 614.293 354.032 614.911 354.032C615.861 354.032 616.549 354.325 616.976 354.912C617.402 355.488 617.616 356.261 617.616 357.232V362H616.528L616.416 361.072H616.368C616.005 361.371 615.605 361.632 615.168 361.856C614.741 362.08 614.282 362.192 613.792 362.192ZM614.176 361.136C614.549 361.136 614.901 361.045 615.232 360.864C615.562 360.683 615.914 360.427 616.288 360.096V357.936C614.997 358.096 614.09 358.336 613.568 358.656C613.056 358.976 612.799 359.387 612.799 359.888C612.799 360.325 612.933 360.645 613.2 360.848C613.466 361.04 613.792 361.136 614.176 361.136ZM614.736 352.832L614.064 352.176L616.32 349.504L617.248 350.384L614.736 352.832ZM620.062 362V354.224H621.15L621.262 355.632H621.31C621.577 355.141 621.902 354.752 622.286 354.464C622.67 354.176 623.081 354.032 623.518 354.032C623.827 354.032 624.105 354.085 624.35 354.192L624.094 355.344C623.966 355.301 623.849 355.269 623.742 355.248C623.635 355.227 623.502 355.216 623.342 355.216C623.011 355.216 622.665 355.349 622.302 355.616C621.95 355.883 621.641 356.347 621.374 357.008V362H620.062ZM625.609 362V354.224H626.921V362H625.609ZM626.281 352.624C626.025 352.624 625.812 352.549 625.641 352.4C625.481 352.24 625.401 352.027 625.401 351.76C625.401 351.504 625.481 351.296 625.641 351.136C625.812 350.976 626.025 350.896 626.281 350.896C626.537 350.896 626.745 350.976 626.905 351.136C627.076 351.296 627.161 351.504 627.161 351.76C627.161 352.027 627.076 352.24 626.905 352.4C626.745 352.549 626.537 352.624 626.281 352.624ZM632.57 362.192C631.941 362.192 631.349 362.032 630.794 361.712C630.25 361.392 629.808 360.928 629.466 360.32C629.136 359.712 628.97 358.981 628.97 358.128C628.97 357.253 629.136 356.512 629.466 355.904C629.808 355.296 630.25 354.832 630.794 354.512C631.349 354.192 631.941 354.032 632.57 354.032C633.21 354.032 633.802 354.192 634.346 354.512C634.89 354.832 635.328 355.296 635.658 355.904C636 356.512 636.17 357.253 636.17 358.128C636.17 358.981 636 359.712 635.658 360.32C635.328 360.928 634.89 361.392 634.346 361.712C633.802 362.032 633.21 362.192 632.57 362.192ZM632.57 361.104C633.242 361.104 633.781 360.832 634.186 360.288C634.602 359.733 634.81 359.013 634.81 358.128C634.81 357.232 634.602 356.507 634.186 355.952C633.781 355.397 633.242 355.12 632.57 355.12C631.909 355.12 631.37 355.397 630.954 355.952C630.538 356.507 630.33 357.232 630.33 358.128C630.33 359.013 630.538 359.733 630.954 360.288C631.37 360.832 631.909 361.104 632.57 361.104ZM640.25 362.192C639.696 362.192 639.168 362.091 638.666 361.888C638.165 361.675 637.728 361.419 637.354 361.12L638.01 360.24C638.352 360.507 638.704 360.731 639.066 360.912C639.429 361.083 639.84 361.168 640.298 361.168C640.81 361.168 641.194 361.051 641.45 360.816C641.706 360.571 641.834 360.283 641.834 359.952C641.834 359.685 641.744 359.461 641.562 359.28C641.392 359.099 641.168 358.949 640.89 358.832C640.624 358.704 640.346 358.587 640.058 358.48C639.696 358.341 639.338 358.187 638.986 358.016C638.634 357.835 638.346 357.605 638.122 357.328C637.898 357.04 637.786 356.677 637.786 356.24C637.786 355.611 638.021 355.088 638.49 354.672C638.97 354.245 639.632 354.032 640.474 354.032C640.954 354.032 641.402 354.117 641.818 354.288C642.234 354.459 642.592 354.667 642.89 354.912L642.25 355.744C641.984 355.541 641.706 355.376 641.418 355.248C641.13 355.12 640.816 355.056 640.474 355.056C639.984 355.056 639.621 355.168 639.386 355.392C639.162 355.616 639.05 355.877 639.05 356.176C639.05 356.421 639.13 356.624 639.29 356.784C639.45 356.933 639.658 357.067 639.914 357.184C640.17 357.291 640.442 357.403 640.73 357.52C641.104 357.659 641.472 357.819 641.834 358C642.197 358.171 642.496 358.405 642.73 358.704C642.976 358.992 643.098 359.381 643.098 359.872C643.098 360.288 642.986 360.672 642.762 361.024C642.549 361.376 642.229 361.659 641.802 361.872C641.386 362.085 640.869 362.192 640.25 362.192ZM651.277 362.192C650.583 362.192 649.954 362.032 649.389 361.712C648.823 361.381 648.375 360.912 648.045 360.304C647.714 359.696 647.549 358.971 647.549 358.128C647.549 357.275 647.714 356.544 648.045 355.936C648.386 355.328 648.823 354.859 649.357 354.528C649.89 354.197 650.45 354.032 651.036 354.032C652.029 354.032 652.791 354.363 653.325 355.024C653.869 355.685 654.141 356.571 654.141 357.68C654.141 357.819 654.135 357.957 654.125 358.096C654.125 358.224 654.114 358.336 654.093 358.432H648.845C648.898 359.253 649.154 359.909 649.613 360.4C650.082 360.891 650.69 361.136 651.437 361.136C651.81 361.136 652.151 361.083 652.461 360.976C652.781 360.859 653.085 360.709 653.373 360.528L653.837 361.392C653.506 361.605 653.127 361.792 652.701 361.952C652.285 362.112 651.81 362.192 651.277 362.192ZM648.829 357.488H652.989C652.989 356.699 652.818 356.101 652.477 355.696C652.146 355.28 651.677 355.072 651.069 355.072C650.525 355.072 650.034 355.285 649.597 355.712C649.17 356.128 648.914 356.72 648.829 357.488ZM656.062 362V354.224H657.15L657.262 355.344H657.31C657.651 354.971 658.025 354.661 658.43 354.416C658.835 354.16 659.267 354.032 659.726 354.032C660.323 354.032 660.787 354.165 661.118 354.432C661.459 354.688 661.71 355.051 661.87 355.52C662.275 355.083 662.686 354.725 663.102 354.448C663.518 354.171 663.961 354.032 664.43 354.032C665.23 354.032 665.822 354.293 666.206 354.816C666.601 355.328 666.798 356.08 666.798 357.072V362H665.486V357.248C665.486 356.523 665.369 355.995 665.134 355.664C664.899 355.333 664.537 355.168 664.046 355.168C663.47 355.168 662.819 355.568 662.094 356.368V362H660.782V357.248C660.782 356.523 660.665 355.995 660.43 355.664C660.195 355.333 659.827 355.168 659.326 355.168C658.75 355.168 658.099 355.568 657.374 356.368V362H656.062ZM675.187 362.192C674.216 362.192 673.437 361.84 672.851 361.136C672.264 360.421 671.971 359.419 671.971 358.128C671.971 357.285 672.125 356.56 672.435 355.952C672.755 355.333 673.171 354.859 673.683 354.528C674.205 354.197 674.76 354.032 675.347 354.032C675.795 354.032 676.184 354.112 676.515 354.272C676.845 354.432 677.181 354.651 677.523 354.928L677.459 353.6V350.608H678.787V362H677.699L677.587 361.088H677.539C677.24 361.387 676.888 361.648 676.483 361.872C676.077 362.085 675.645 362.192 675.187 362.192ZM675.475 361.088C676.157 361.088 676.819 360.731 677.459 360.016V355.952C677.128 355.653 676.808 355.445 676.499 355.328C676.2 355.2 675.891 355.136 675.571 355.136C675.155 355.136 674.776 355.264 674.435 355.52C674.104 355.765 673.837 356.112 673.635 356.56C673.432 356.997 673.331 357.515 673.331 358.112C673.331 359.04 673.517 359.771 673.891 360.304C674.264 360.827 674.792 361.088 675.475 361.088ZM684.558 362.192C683.864 362.192 683.235 362.032 682.67 361.712C682.104 361.381 681.656 360.912 681.326 360.304C680.995 359.696 680.83 358.971 680.83 358.128C680.83 357.275 680.995 356.544 681.326 355.936C681.667 355.328 682.104 354.859 682.638 354.528C683.171 354.197 683.731 354.032 684.318 354.032C685.31 354.032 686.072 354.363 686.606 355.024C687.15 355.685 687.422 356.571 687.422 357.68C687.422 357.819 687.416 357.957 687.406 358.096C687.406 358.224 687.395 358.336 687.374 358.432H682.126C682.179 359.253 682.435 359.909 682.894 360.4C683.363 360.891 683.971 361.136 684.718 361.136C685.091 361.136 685.432 361.083 685.742 360.976C686.062 360.859 686.366 360.709 686.654 360.528L687.118 361.392C686.787 361.605 686.408 361.792 685.982 361.952C685.566 362.112 685.091 362.192 684.558 362.192ZM682.11 357.488H686.27C686.27 356.699 686.099 356.101 685.758 355.696C685.427 355.28 684.958 355.072 684.35 355.072C683.806 355.072 683.315 355.285 682.878 355.712C682.451 356.128 682.195 356.72 682.11 357.488ZM692.415 362.192C691.733 362.192 691.114 362.032 690.559 361.712C690.005 361.392 689.567 360.928 689.247 360.32C688.927 359.712 688.767 358.981 688.767 358.128C688.767 357.253 688.938 356.512 689.279 355.904C689.631 355.296 690.09 354.832 690.655 354.512C691.231 354.192 691.85 354.032 692.511 354.032C693.023 354.032 693.461 354.123 693.823 354.304C694.197 354.485 694.517 354.699 694.783 354.944L694.111 355.808C693.887 355.605 693.647 355.44 693.391 355.312C693.146 355.184 692.869 355.12 692.559 355.12C692.09 355.12 691.669 355.248 691.295 355.504C690.933 355.749 690.645 356.101 690.431 356.56C690.229 357.008 690.127 357.531 690.127 358.128C690.127 359.013 690.346 359.733 690.783 360.288C691.231 360.832 691.813 361.104 692.527 361.104C692.89 361.104 693.226 361.029 693.535 360.88C693.845 360.72 694.117 360.533 694.351 360.32L694.927 361.2C694.575 361.509 694.186 361.755 693.759 361.936C693.333 362.107 692.885 362.192 692.415 362.192ZM696.64 362V354.224H697.952V362H696.64ZM697.312 352.624C697.056 352.624 696.843 352.549 696.672 352.4C696.512 352.24 696.432 352.027 696.432 351.76C696.432 351.504 696.512 351.296 696.672 351.136C696.843 350.976 697.056 350.896 697.312 350.896C697.568 350.896 697.776 350.976 697.936 351.136C698.107 351.296 698.192 351.504 698.192 351.76C698.192 352.027 698.107 352.24 697.936 352.4C697.776 352.549 697.568 352.624 697.312 352.624ZM700.578 362V354.224H701.666L701.778 355.344H701.826C702.167 354.971 702.54 354.661 702.946 354.416C703.351 354.16 703.783 354.032 704.242 354.032C704.839 354.032 705.303 354.165 705.634 354.432C705.975 354.688 706.226 355.051 706.386 355.52C706.791 355.083 707.202 354.725 707.618 354.448C708.034 354.171 708.476 354.032 708.946 354.032C709.746 354.032 710.338 354.293 710.722 354.816C711.116 355.328 711.314 356.08 711.314 357.072V362H710.002V357.248C710.002 356.523 709.884 355.995 709.65 355.664C709.415 355.333 709.052 355.168 708.562 355.168C707.986 355.168 707.335 355.568 706.61 356.368V362H705.298V357.248C705.298 356.523 705.18 355.995 704.946 355.664C704.711 355.333 704.343 355.168 703.842 355.168C703.266 355.168 702.615 355.568 701.89 356.368V362H700.578ZM715.635 362.192C714.985 362.192 714.441 362 714.003 361.616C713.577 361.221 713.363 360.677 713.363 359.984C713.363 359.131 713.742 358.48 714.499 358.032C715.267 357.573 716.478 357.253 718.131 357.072C718.131 356.741 718.083 356.427 717.987 356.128C717.902 355.829 717.742 355.589 717.507 355.408C717.283 355.216 716.958 355.12 716.531 355.12C716.083 355.12 715.662 355.205 715.267 355.376C714.873 355.547 714.521 355.739 714.211 355.952L713.699 355.04C714.062 354.805 714.505 354.581 715.027 354.368C715.561 354.144 716.137 354.032 716.755 354.032C717.705 354.032 718.393 354.325 718.819 354.912C719.246 355.488 719.459 356.261 719.459 357.232V362H718.371L718.259 361.072H718.211C717.849 361.371 717.449 361.632 717.011 361.856C716.585 362.08 716.126 362.192 715.635 362.192ZM716.019 361.136C716.393 361.136 716.745 361.045 717.075 360.864C717.406 360.683 717.758 360.427 718.131 360.096V357.936C716.841 358.096 715.934 358.336 715.411 358.656C714.899 358.976 714.643 359.387 714.643 359.888C714.643 360.325 714.777 360.645 715.043 360.848C715.31 361.04 715.635 361.136 716.019 361.136ZM721.906 362V354.224H723.218V362H721.906ZM722.578 352.624C722.322 352.624 722.108 352.549 721.938 352.4C721.778 352.24 721.698 352.027 721.698 351.76C721.698 351.504 721.778 351.296 721.938 351.136C722.108 350.976 722.322 350.896 722.578 350.896C722.834 350.896 723.042 350.976 723.202 351.136C723.372 351.296 723.458 351.504 723.458 351.76C723.458 352.027 723.372 352.24 723.202 352.4C723.042 352.549 722.834 352.624 722.578 352.624ZM727.875 362.192C727.321 362.192 726.793 362.091 726.291 361.888C725.79 361.675 725.353 361.419 724.979 361.12L725.635 360.24C725.977 360.507 726.329 360.731 726.691 360.912C727.054 361.083 727.465 361.168 727.923 361.168C728.435 361.168 728.819 361.051 729.075 360.816C729.331 360.571 729.459 360.283 729.459 359.952C729.459 359.685 729.369 359.461 729.187 359.28C729.017 359.099 728.793 358.949 728.515 358.832C728.249 358.704 727.971 358.587 727.683 358.48C727.321 358.341 726.963 358.187 726.611 358.016C726.259 357.835 725.971 357.605 725.747 357.328C725.523 357.04 725.411 356.677 725.411 356.24C725.411 355.611 725.646 355.088 726.115 354.672C726.595 354.245 727.257 354.032 728.099 354.032C728.579 354.032 729.027 354.117 729.443 354.288C729.859 354.459 730.217 354.667 730.515 354.912L729.875 355.744C729.609 355.541 729.331 355.376 729.043 355.248C728.755 355.12 728.441 355.056 728.099 355.056C727.609 355.056 727.246 355.168 727.011 355.392C726.787 355.616 726.675 355.877 726.675 356.176C726.675 356.421 726.755 356.624 726.915 356.784C727.075 356.933 727.283 357.067 727.539 357.184C727.795 357.291 728.067 357.403 728.355 357.52C728.729 357.659 729.097 357.819 729.459 358C729.822 358.171 730.121 358.405 730.355 358.704C730.601 358.992 730.723 359.381 730.723 359.872C730.723 360.288 730.611 360.672 730.387 361.024C730.174 361.376 729.854 361.659 729.427 361.872C729.011 362.085 728.494 362.192 727.875 362.192Z" fill="white"/>
<rect x="208.5" y="443.5" width="345" height="78" rx="7.5" stroke="white" stroke-opacity="0.5"/>
<rect x="646.5" y="443.5" width="343" height="78" rx="7.5" stroke="white" stroke-opacity="0.5"/>
<rect x="881" y="546" width="111" height="34" rx="8" fill="#EED49F"/>
<path opacity="0.8" d="M616.707 483.707C617.098 483.317 617.098 482.683 616.707 482.293L610.343 475.929C609.953 475.538 609.319 475.538 608.929 475.929C608.538 476.319 608.538 476.953 608.929 477.343L614.586 483L608.929 488.657C608.538 489.047 608.538 489.681 608.929 490.071C609.319 490.462 609.953 490.462 610.343 490.071L616.707 483.707ZM584 484H616V482H584V484Z" fill="white"/>
<path opacity="0.8" d="M222.44 430V419.504H225.064C226.685 419.504 227.917 419.957 228.76 420.864C229.603 421.76 230.024 423.04 230.024 424.704C230.024 426.379 229.603 427.68 228.76 428.608C227.928 429.536 226.717 430 225.128 430H222.44ZM223.768 428.912H224.968C226.195 428.912 227.112 428.544 227.72 427.808C228.339 427.061 228.648 426.027 228.648 424.704C228.648 423.381 228.339 422.368 227.72 421.664C227.112 420.949 226.195 420.592 224.968 420.592H223.768V428.912ZM235.308 430.192C234.614 430.192 233.985 430.032 233.42 429.712C232.854 429.381 232.406 428.912 232.076 428.304C231.745 427.696 231.58 426.971 231.58 426.128C231.58 425.275 231.745 424.544 232.076 423.936C232.417 423.328 232.854 422.859 233.388 422.528C233.921 422.197 234.481 422.032 235.068 422.032C236.06 422.032 236.822 422.363 237.356 423.024C237.9 423.685 238.172 424.571 238.172 425.68C238.172 425.819 238.166 425.957 238.156 426.096C238.156 426.224 238.145 426.336 238.124 426.432H232.876C232.929 427.253 233.185 427.909 233.644 428.4C234.113 428.891 234.721 429.136 235.468 429.136C235.841 429.136 236.182 429.083 236.492 428.976C236.812 428.859 237.116 428.709 237.404 428.528L237.868 429.392C237.537 429.605 237.158 429.792 236.732 429.952C236.316 430.112 235.841 430.192 235.308 430.192ZM232.86 425.488H237.02C237.02 424.699 236.849 424.101 236.508 423.696C236.177 423.28 235.708 423.072 235.1 423.072C234.556 423.072 234.065 423.285 233.628 423.712C233.201 424.128 232.945 424.72 232.86 425.488ZM243.165 430.192C242.483 430.192 241.864 430.032 241.309 429.712C240.755 429.392 240.317 428.928 239.997 428.32C239.677 427.712 239.517 426.981 239.517 426.128C239.517 425.253 239.688 424.512 240.029 423.904C240.381 423.296 240.84 422.832 241.405 422.512C241.981 422.192 242.6 422.032 243.261 422.032C243.773 422.032 244.211 422.123 244.573 422.304C244.947 422.485 245.267 422.699 245.533 422.944L244.861 423.808C244.637 423.605 244.397 423.44 244.141 423.312C243.896 423.184 243.619 423.12 243.309 423.12C242.84 423.12 242.419 423.248 242.045 423.504C241.683 423.749 241.395 424.101 241.181 424.56C240.979 425.008 240.877 425.531 240.877 426.128C240.877 427.013 241.096 427.733 241.533 428.288C241.981 428.832 242.563 429.104 243.277 429.104C243.64 429.104 243.976 429.029 244.285 428.88C244.595 428.72 244.867 428.533 245.101 428.32L245.677 429.2C245.325 429.509 244.936 429.755 244.509 429.936C244.083 430.107 243.635 430.192 243.165 430.192ZM247.39 430V422.224H248.702V430H247.39ZM248.062 420.624C247.806 420.624 247.593 420.549 247.422 420.4C247.262 420.24 247.182 420.027 247.182 419.76C247.182 419.504 247.262 419.296 247.422 419.136C247.593 418.976 247.806 418.896 248.062 418.896C248.318 418.896 248.526 418.976 248.686 419.136C248.857 419.296 248.942 419.504 248.942 419.76C248.942 420.027 248.857 420.24 248.686 420.4C248.526 420.549 248.318 420.624 248.062 420.624ZM251.328 430V422.224H252.416L252.528 423.344H252.576C252.917 422.971 253.29 422.661 253.696 422.416C254.101 422.16 254.533 422.032 254.992 422.032C255.589 422.032 256.053 422.165 256.384 422.432C256.725 422.688 256.976 423.051 257.136 423.52C257.541 423.083 257.952 422.725 258.368 422.448C258.784 422.171 259.226 422.032 259.696 422.032C260.496 422.032 261.088 422.293 261.472 422.816C261.866 423.328 262.064 424.08 262.064 425.072V430H260.752V425.248C260.752 424.523 260.634 423.995 260.4 423.664C260.165 423.333 259.802 423.168 259.312 423.168C258.736 423.168 258.085 423.568 257.36 424.368V430H256.048V425.248C256.048 424.523 255.93 423.995 255.696 423.664C255.461 423.333 255.093 423.168 254.592 423.168C254.016 423.168 253.365 423.568 252.64 424.368V430H251.328ZM266.385 430.192C265.735 430.192 265.191 430 264.753 429.616C264.327 429.221 264.113 428.677 264.113 427.984C264.113 427.131 264.492 426.48 265.249 426.032C266.017 425.573 267.228 425.253 268.881 425.072C268.881 424.741 268.833 424.427 268.737 424.128C268.652 423.829 268.492 423.589 268.257 423.408C268.033 423.216 267.708 423.12 267.281 423.12C266.833 423.12 266.412 423.205 266.017 423.376C265.623 423.547 265.271 423.739 264.961 423.952L264.449 423.04C264.812 422.805 265.255 422.581 265.777 422.368C266.311 422.144 266.887 422.032 267.505 422.032C268.455 422.032 269.143 422.325 269.569 422.912C269.996 423.488 270.209 424.261 270.209 425.232V430H269.121L269.009 429.072H268.961C268.599 429.371 268.199 429.632 267.761 429.856C267.335 430.08 266.876 430.192 266.385 430.192ZM266.769 429.136C267.143 429.136 267.495 429.045 267.825 428.864C268.156 428.683 268.508 428.427 268.881 428.096V425.936C267.591 426.096 266.684 426.336 266.161 426.656C265.649 426.976 265.393 427.387 265.393 427.888C265.393 428.325 265.527 428.645 265.793 428.848C266.06 429.04 266.385 429.136 266.769 429.136ZM274.048 430.192C273.557 430.192 273.2 430.043 272.976 429.744C272.762 429.435 272.656 428.997 272.656 428.432V418.608H273.968V428.528C273.968 428.731 274.005 428.88 274.08 428.976C274.154 429.061 274.24 429.104 274.336 429.104C274.378 429.104 274.416 429.104 274.448 429.104C274.49 429.093 274.549 429.083 274.624 429.072L274.8 430.064C274.714 430.107 274.613 430.139 274.496 430.16C274.378 430.181 274.229 430.192 274.048 430.192Z" fill="white"/>
<path opacity="0.8" d="M659.44 431V420.504H662.56C663.275 420.504 663.899 420.589 664.432 420.76C664.976 420.931 665.397 421.203 665.696 421.576C666.005 421.949 666.16 422.445 666.16 423.064C666.16 423.587 666.027 424.061 665.76 424.488C665.504 424.904 665.125 425.192 664.624 425.352V425.416C665.253 425.533 665.765 425.8 666.16 426.216C666.565 426.632 666.768 427.203 666.768 427.928C666.768 428.611 666.597 429.181 666.256 429.64C665.925 430.099 665.461 430.44 664.864 430.664C664.267 430.888 663.573 431 662.784 431H659.44ZM660.768 424.968H662.32C663.216 424.968 663.861 424.813 664.256 424.504C664.651 424.195 664.848 423.773 664.848 423.24C664.848 422.632 664.64 422.2 664.224 421.944C663.819 421.688 663.205 421.56 662.384 421.56H660.768V424.968ZM660.768 429.944H662.592C663.499 429.944 664.203 429.779 664.704 429.448C665.205 429.107 665.456 428.584 665.456 427.88C665.456 427.229 665.205 426.755 664.704 426.456C664.213 426.147 663.509 425.992 662.592 425.992H660.768V429.944ZM668.718 431V423.224H670.03V431H668.718ZM669.39 421.624C669.134 421.624 668.921 421.549 668.75 421.4C668.59 421.24 668.51 421.027 668.51 420.76C668.51 420.504 668.59 420.296 668.75 420.136C668.921 419.976 669.134 419.896 669.39 419.896C669.646 419.896 669.854 419.976 670.014 420.136C670.185 420.296 670.27 420.504 670.27 420.76C670.27 421.027 670.185 421.24 670.014 421.4C669.854 421.549 669.646 421.624 669.39 421.624ZM672.656 431V423.224H673.744L673.856 424.344H673.904C674.277 423.971 674.672 423.661 675.088 423.416C675.504 423.16 675.978 423.032 676.512 423.032C677.333 423.032 677.93 423.293 678.304 423.816C678.688 424.328 678.88 425.08 678.88 426.072V431H677.568V426.248C677.568 425.523 677.45 424.995 677.216 424.664C676.981 424.333 676.608 424.168 676.096 424.168C675.701 424.168 675.344 424.269 675.024 424.472C674.714 424.675 674.362 424.973 673.968 425.368V431H672.656ZM683.198 431.192C682.547 431.192 682.003 431 681.566 430.616C681.139 430.221 680.926 429.677 680.926 428.984C680.926 428.131 681.304 427.48 682.062 427.032C682.83 426.573 684.04 426.253 685.694 426.072C685.694 425.741 685.646 425.427 685.55 425.128C685.464 424.829 685.304 424.589 685.07 424.408C684.846 424.216 684.52 424.12 684.094 424.12C683.646 424.12 683.224 424.205 682.83 424.376C682.435 424.547 682.083 424.739 681.774 424.952L681.262 424.04C681.624 423.805 682.067 423.581 682.59 423.368C683.123 423.144 683.699 423.032 684.318 423.032C685.267 423.032 685.955 423.325 686.382 423.912C686.808 424.488 687.022 425.261 687.022 426.232V431H685.934L685.822 430.072H685.774C685.411 430.371 685.011 430.632 684.574 430.856C684.147 431.08 683.688 431.192 683.198 431.192ZM683.582 430.136C683.955 430.136 684.307 430.045 684.638 429.864C684.968 429.683 685.32 429.427 685.694 429.096V426.936C684.403 427.096 683.496 427.336 682.974 427.656C682.462 427.976 682.206 428.387 682.206 428.888C682.206 429.325 682.339 429.645 682.606 429.848C682.872 430.04 683.198 430.136 683.582 430.136ZM684.142 421.832L683.47 421.176L685.726 418.504L686.654 419.384L684.142 421.832ZM689.468 431V423.224H690.556L690.668 424.632H690.716C690.983 424.141 691.308 423.752 691.692 423.464C692.076 423.176 692.487 423.032 692.924 423.032C693.234 423.032 693.511 423.085 693.756 423.192L693.5 424.344C693.372 424.301 693.255 424.269 693.148 424.248C693.042 424.227 692.908 424.216 692.748 424.216C692.418 424.216 692.071 424.349 691.708 424.616C691.356 424.883 691.047 425.347 690.78 426.008V431H689.468ZM695.015 431V423.224H696.327V431H695.015ZM695.687 421.624C695.431 421.624 695.218 421.549 695.047 421.4C694.887 421.24 694.807 421.027 694.807 420.76C694.807 420.504 694.887 420.296 695.047 420.136C695.218 419.976 695.431 419.896 695.687 419.896C695.943 419.896 696.151 419.976 696.311 420.136C696.482 420.296 696.567 420.504 696.567 420.76C696.567 421.027 696.482 421.24 696.311 421.4C696.151 421.549 695.943 421.624 695.687 421.624ZM701.977 431.192C701.347 431.192 700.755 431.032 700.201 430.712C699.657 430.392 699.214 429.928 698.873 429.32C698.542 428.712 698.377 427.981 698.377 427.128C698.377 426.253 698.542 425.512 698.873 424.904C699.214 424.296 699.657 423.832 700.201 423.512C700.755 423.192 701.347 423.032 701.977 423.032C702.617 423.032 703.209 423.192 703.753 423.512C704.297 423.832 704.734 424.296 705.065 424.904C705.406 425.512 705.577 426.253 705.577 427.128C705.577 427.981 705.406 428.712 705.065 429.32C704.734 429.928 704.297 430.392 703.753 430.712C703.209 431.032 702.617 431.192 701.977 431.192ZM701.977 430.104C702.649 430.104 703.187 429.832 703.593 429.288C704.009 428.733 704.217 428.013 704.217 427.128C704.217 426.232 704.009 425.507 703.593 424.952C703.187 424.397 702.649 424.12 701.977 424.12C701.315 424.12 700.777 424.397 700.361 424.952C699.945 425.507 699.737 426.232 699.737 427.128C699.737 428.013 699.945 428.733 700.361 429.288C700.777 429.832 701.315 430.104 701.977 430.104Z" fill="white"/>
<path d="M909.816 568.168C909.051 568.168 908.355 567.986 907.73 567.622C907.105 567.258 906.605 566.726 906.232 566.026C905.868 565.317 905.686 564.458 905.686 563.45C905.686 562.451 905.873 561.597 906.246 560.888C906.629 560.169 907.137 559.623 907.772 559.25C908.407 558.867 909.107 558.676 909.872 558.676C910.451 558.676 910.964 558.793 911.412 559.026C911.86 559.259 912.229 559.53 912.518 559.838L911.65 560.888C911.417 560.645 911.155 560.454 910.866 560.314C910.586 560.165 910.269 560.09 909.914 560.09C909.419 560.09 908.976 560.225 908.584 560.496C908.201 560.757 907.898 561.135 907.674 561.63C907.459 562.125 907.352 562.717 907.352 563.408C907.352 564.453 907.581 565.275 908.038 565.872C908.495 566.46 909.107 566.754 909.872 566.754C910.283 566.754 910.647 566.67 910.964 566.502C911.281 566.325 911.571 566.096 911.832 565.816L912.7 566.838C912.327 567.267 911.897 567.599 911.412 567.832C910.936 568.056 910.404 568.168 909.816 568.168ZM916.902 568.168C916.333 568.168 915.801 568.028 915.306 567.748C914.812 567.459 914.41 567.048 914.102 566.516C913.794 565.975 913.64 565.326 913.64 564.57C913.64 563.805 913.794 563.156 914.102 562.624C914.41 562.083 914.812 561.672 915.306 561.392C915.801 561.103 916.333 560.958 916.902 560.958C917.481 560.958 918.018 561.103 918.512 561.392C919.007 561.672 919.408 562.083 919.716 562.624C920.024 563.156 920.178 563.805 920.178 564.57C920.178 565.326 920.024 565.975 919.716 566.516C919.408 567.048 919.007 567.459 918.512 567.748C918.018 568.028 917.481 568.168 916.902 568.168ZM916.902 566.852C917.406 566.852 917.803 566.642 918.092 566.222C918.382 565.802 918.526 565.251 918.526 564.57C918.526 563.879 918.382 563.324 918.092 562.904C917.803 562.484 917.406 562.274 916.902 562.274C916.398 562.274 916.002 562.484 915.712 562.904C915.432 563.324 915.292 563.879 915.292 564.57C915.292 565.251 915.432 565.802 915.712 566.222C916.002 566.642 916.398 566.852 916.902 566.852ZM921.772 568V561.126H923.102L923.214 562.05H923.27C923.578 561.751 923.914 561.495 924.278 561.28C924.642 561.065 925.057 560.958 925.524 560.958C926.261 560.958 926.798 561.196 927.134 561.672C927.47 562.148 927.638 562.82 927.638 563.688V568H926.028V563.898C926.028 563.329 925.944 562.927 925.776 562.694C925.608 562.461 925.333 562.344 924.95 562.344C924.651 562.344 924.385 562.419 924.152 562.568C923.928 562.708 923.671 562.918 923.382 563.198V568H921.772ZM931.146 568L928.752 561.126H930.39L931.482 564.696C931.575 565.032 931.669 565.373 931.762 565.718C931.865 566.063 931.963 566.413 932.056 566.768H932.112C932.215 566.413 932.313 566.063 932.406 565.718C932.509 565.373 932.607 565.032 932.7 564.696L933.792 561.126H935.346L933.008 568H931.146ZM939.396 568.168C938.761 568.168 938.187 568.028 937.674 567.748C937.16 567.459 936.754 567.048 936.456 566.516C936.157 565.975 936.008 565.326 936.008 564.57C936.008 563.823 936.157 563.179 936.456 562.638C936.764 562.097 937.16 561.681 937.646 561.392C938.131 561.103 938.64 560.958 939.172 560.958C939.797 560.958 940.32 561.098 940.74 561.378C941.16 561.649 941.477 562.031 941.692 562.526C941.906 563.011 942.014 563.576 942.014 564.22C942.014 564.556 941.99 564.817 941.944 565.004H937.576C937.65 565.611 937.87 566.082 938.234 566.418C938.598 566.754 939.055 566.922 939.606 566.922C939.904 566.922 940.18 566.88 940.432 566.796C940.693 566.703 940.95 566.577 941.202 566.418L941.748 567.426C941.421 567.641 941.057 567.818 940.656 567.958C940.254 568.098 939.834 568.168 939.396 568.168ZM937.562 563.912H940.614C940.614 563.38 940.497 562.965 940.264 562.666C940.03 562.358 939.68 562.204 939.214 562.204C938.812 562.204 938.453 562.353 938.136 562.652C937.828 562.941 937.636 563.361 937.562 563.912ZM943.551 568V561.126H944.881L944.993 562.344H945.049C945.292 561.896 945.586 561.555 945.931 561.322C946.277 561.079 946.631 560.958 946.995 560.958C947.322 560.958 947.583 561.005 947.779 561.098L947.499 562.498C947.378 562.461 947.266 562.433 947.163 562.414C947.061 562.395 946.935 562.386 946.785 562.386C946.515 562.386 946.23 562.493 945.931 562.708C945.633 562.913 945.376 563.277 945.161 563.8V568H943.551ZM951.196 568.168C950.403 568.168 949.838 567.939 949.502 567.482C949.175 567.015 949.012 566.413 949.012 565.676V562.4H948.032V561.196L949.096 561.126L949.292 559.25H950.636V561.126H952.386V562.4H950.636V565.676C950.636 566.479 950.958 566.88 951.602 566.88C951.723 566.88 951.849 566.866 951.98 566.838C952.111 566.801 952.223 566.763 952.316 566.726L952.596 567.916C952.409 567.981 952.195 568.037 951.952 568.084C951.719 568.14 951.467 568.168 951.196 568.168ZM956.554 568.168C955.919 568.168 955.345 568.028 954.832 567.748C954.318 567.459 953.912 567.048 953.614 566.516C953.315 565.975 953.166 565.326 953.166 564.57C953.166 563.823 953.315 563.179 953.614 562.638C953.922 562.097 954.318 561.681 954.804 561.392C955.289 561.103 955.798 560.958 956.33 560.958C956.955 560.958 957.478 561.098 957.898 561.378C958.318 561.649 958.635 562.031 958.85 562.526C959.064 563.011 959.172 563.576 959.172 564.22C959.172 564.556 959.148 564.817 959.102 565.004H954.734C954.808 565.611 955.028 566.082 955.392 566.418C955.756 566.754 956.213 566.922 956.764 566.922C957.062 566.922 957.338 566.88 957.59 566.796C957.851 566.703 958.108 566.577 958.36 566.418L958.906 567.426C958.579 567.641 958.215 567.818 957.814 567.958C957.412 568.098 956.992 568.168 956.554 568.168ZM954.72 563.912H957.772C957.772 563.38 957.655 562.965 957.422 562.666C957.188 562.358 956.838 562.204 956.372 562.204C955.97 562.204 955.611 562.353 955.294 562.652C954.986 562.941 954.794 563.361 954.72 563.912ZM960.71 568V561.126H962.04L962.152 562.344H962.208C962.45 561.896 962.744 561.555 963.09 561.322C963.435 561.079 963.79 560.958 964.154 560.958C964.48 560.958 964.742 561.005 964.938 561.098L964.658 562.498C964.536 562.461 964.424 562.433 964.322 562.414C964.219 562.395 964.093 562.386 963.944 562.386C963.673 562.386 963.388 562.493 963.09 562.708C962.791 562.913 962.534 563.277 962.32 563.8V568H960.71Z" fill="#111111"/>
<path opacity="0.8" d="M370.896 492V490.368H374.4V479.088H371.616V477.816C372.32 477.688 372.928 477.536 373.44 477.36C373.968 477.168 374.44 476.944 374.856 476.688H376.368V490.368H379.536V492H370.896ZM386.906 492.288C385.37 492.288 384.162 491.6 383.282 490.224C382.418 488.832 381.986 486.856 381.986 484.296C381.986 481.72 382.418 479.76 383.282 478.416C384.162 477.072 385.37 476.4 386.906 476.4C388.426 476.4 389.618 477.072 390.482 478.416C391.362 479.76 391.802 481.72 391.802 484.296C391.802 486.856 391.362 488.832 390.482 490.224C389.618 491.6 388.426 492.288 386.906 492.288ZM386.906 490.704C387.802 490.704 388.522 490.2 389.066 489.192C389.61 488.168 389.882 486.536 389.882 484.296C389.882 482.056 389.61 480.448 389.066 479.472C388.522 478.48 387.802 477.984 386.906 477.984C386.01 477.984 385.282 478.48 384.722 479.472C384.178 480.448 383.906 482.056 383.906 484.296C383.906 486.536 384.178 488.168 384.722 489.192C385.282 490.2 386.01 490.704 386.906 490.704Z" fill="white"/>
<path opacity="0.8" d="M795.896 492V490.368H799.4V479.088H796.616V477.816C797.32 477.688 797.928 477.536 798.44 477.36C798.968 477.168 799.44 476.944 799.856 476.688H801.368V490.368H804.536V492H795.896ZM811.906 492.288C810.37 492.288 809.162 491.6 808.282 490.224C807.418 488.832 806.986 486.856 806.986 484.296C806.986 481.72 807.418 479.76 808.282 478.416C809.162 477.072 810.37 476.4 811.906 476.4C813.426 476.4 814.618 477.072 815.482 478.416C816.362 479.76 816.802 481.72 816.802 484.296C816.802 486.856 816.362 488.832 815.482 490.224C814.618 491.6 813.426 492.288 811.906 492.288ZM811.906 490.704C812.802 490.704 813.522 490.2 814.066 489.192C814.61 488.168 814.882 486.536 814.882 484.296C814.882 482.056 814.61 480.448 814.066 479.472C813.522 478.48 812.802 477.984 811.906 477.984C811.01 477.984 810.282 478.48 809.722 479.472C809.178 480.448 808.906 482.056 808.906 484.296C808.906 486.536 809.178 488.168 809.722 489.192C810.282 490.2 811.01 490.704 811.906 490.704ZM819.755 492V490.368H823.259V479.088H820.475V477.816C821.179 477.688 821.787 477.536 822.299 477.36C822.827 477.168 823.299 476.944 823.715 476.688H825.227V490.368H828.395V492H819.755ZM835.765 492.288C834.229 492.288 833.021 491.6 832.141 490.224C831.277 488.832 830.845 486.856 830.845 484.296C830.845 481.72 831.277 479.76 832.141 478.416C833.021 477.072 834.229 476.4 835.765 476.4C837.285 476.4 838.477 477.072 839.341 478.416C840.221 479.76 840.661 481.72 840.661 484.296C840.661 486.856 840.221 488.832 839.341 490.224C838.477 491.6 837.285 492.288 835.765 492.288ZM835.765 490.704C836.661 490.704 837.381 490.2 837.925 489.192C838.469 488.168 838.741 486.536 838.741 484.296C838.741 482.056 838.469 480.448 837.925 479.472C837.381 478.48 836.661 477.984 835.765 477.984C834.869 477.984 834.141 478.48 833.581 479.472C833.037 480.448 832.765 482.056 832.765 484.296C832.765 486.536 833.037 488.168 833.581 489.192C834.141 490.2 834.869 490.704 835.765 490.704Z" fill="#EED49F"/>
</g>
<defs>
<clipPath id="clip0_1_2">
<rect width="1200" height="932" fill="white"/>
</clipPath>
</defs>
</svg>
