<svg width="32" height="32" viewBox="0 0 32 32" fill="none" xmlns="http://www.w3.org/2000/svg">
<path fill-rule="evenodd" clip-rule="evenodd" d="M30.6667 32L27.9444 29.3333H16V32H29.3333H30.6667ZM29.3333 26.9609V2.66667V0H32V2.66667V29.3333V29.5732L29.3333 26.9609ZM32 31.9861L31.9864 32H32V31.9861ZM4.53294 2.66667L1.81072 0H2.66667H16V2.66667H4.53294ZM0 1.95918L2.66667 4.57143V29.3333V32H0V29.3333V2.66667V1.95918Z" fill="#91D7E3"/>
<path fill-rule="evenodd" clip-rule="evenodd" d="M22.9118 20.0309C23.6036 18.8473 24 17.4699 24 16C24 11.5817 20.4183 8 16 8C14.4711 8 13.0423 8.42889 11.8275 9.17293L13.8245 11.1291C14.4888 10.8319 15.2251 10.6667 16 10.6667C18.9455 10.6667 21.3333 13.0545 21.3333 16C21.3333 16.7359 21.1843 17.437 20.9148 18.0747L22.9118 20.0309ZM11.7272 12.8076C11.0612 13.6977 10.6667 14.8028 10.6667 16C10.6667 18.9455 13.0545 21.3333 16 21.3333C17.2367 21.3333 18.3751 20.9124 19.2797 20.206L21.196 22.0831C19.7981 23.2783 17.9833 24 16 24C11.5817 24 8 20.4183 8 16C8 14.076 8.67923 12.3105 9.81099 10.9305L11.7272 12.8076Z" fill="#ED8796"/>
<path fill-rule="evenodd" clip-rule="evenodd" d="M32 29.5211V29.3333V2.66667V0H29.3333V2.66667V26.9089L32 29.5211ZM27.9976 29.3333H16V32H29.3333H30.7198L27.9976 29.3333Z" fill="#EED49F"/>
</svg>
